<?xml version="1.0" encoding="utf-8" standalone="no"?>
<!DOCTYPE svg PUBLIC "-//W3C//DTD SVG 1.1//EN"
  "http://www.w3.org/Graphics/SVG/1.1/DTD/svg11.dtd">
<!-- Created with matplotlib (https://matplotlib.org/) -->
<svg height="720pt" version="1.1" viewBox="0 0 720 720" width="720pt" xmlns="http://www.w3.org/2000/svg" xmlns:xlink="http://www.w3.org/1999/xlink">
 <defs>
  <style type="text/css">
*{stroke-linecap:butt;stroke-linejoin:round;}
  </style>
 </defs>
 <g id="figure_1">
  <g id="patch_1">
   <path d="M 0 720 
L 720 720 
L 720 0 
L 0 0 
z
" style="fill:#ffffff;"/>
  </g>
  <g id="axes_1">
   <g id="patch_2">
    <path d="M 90 630 
L 648 630 
L 648 86.4 
L 90 86.4 
z
" style="fill:#ffffff;"/>
   </g>
   <g id="matplotlib.axis_1">
    <g id="xtick_1">
     <g id="line2d_1">
      <defs>
       <path d="M 0 0 
L 0 3.5 
" id="m0f8cef2c3b" style="stroke:#000000;stroke-width:0.8;"/>
      </defs>
      <g>
       <use style="stroke:#000000;stroke-width:0.8;" x="115.363636" xlink:href="#m0f8cef2c3b" y="630"/>
      </g>
     </g>
     <g id="text_1">
      <!-- 0 -->
      <defs>
       <path d="M 31.78125 66.40625 
Q 24.171875 66.40625 20.328125 58.90625 
Q 16.5 51.421875 16.5 36.375 
Q 16.5 21.390625 20.328125 13.890625 
Q 24.171875 6.390625 31.78125 6.390625 
Q 39.453125 6.390625 43.28125 13.890625 
Q 47.125 21.390625 47.125 36.375 
Q 47.125 51.421875 43.28125 58.90625 
Q 39.453125 66.40625 31.78125 66.40625 
z
M 31.78125 74.21875 
Q 44.046875 74.21875 50.515625 64.515625 
Q 56.984375 54.828125 56.984375 36.375 
Q 56.984375 17.96875 50.515625 8.265625 
Q 44.046875 -1.421875 31.78125 -1.421875 
Q 19.53125 -1.421875 13.0625 8.265625 
Q 6.59375 17.96875 6.59375 36.375 
Q 6.59375 54.828125 13.0625 64.515625 
Q 19.53125 74.21875 31.78125 74.21875 
z
" id="DejaVuSans-48"/>
      </defs>
      <g transform="translate(112.182386 644.598438)scale(0.1 -0.1)">
       <use xlink:href="#DejaVuSans-48"/>
      </g>
     </g>
    </g>
    <g id="xtick_2">
     <g id="line2d_2">
      <g>
       <use style="stroke:#000000;stroke-width:0.8;" x="179.091366" xlink:href="#m0f8cef2c3b" y="630"/>
      </g>
     </g>
     <g id="text_2">
      <!-- 25 -->
      <defs>
       <path d="M 19.1875 8.296875 
L 53.609375 8.296875 
L 53.609375 0 
L 7.328125 0 
L 7.328125 8.296875 
Q 12.9375 14.109375 22.625 23.890625 
Q 32.328125 33.6875 34.8125 36.53125 
Q 39.546875 41.84375 41.421875 45.53125 
Q 43.3125 49.21875 43.3125 52.78125 
Q 43.3125 58.59375 39.234375 62.25 
Q 35.15625 65.921875 28.609375 65.921875 
Q 23.96875 65.921875 18.8125 64.3125 
Q 13.671875 62.703125 7.8125 59.421875 
L 7.8125 69.390625 
Q 13.765625 71.78125 18.9375 73 
Q 24.125 74.21875 28.421875 74.21875 
Q 39.75 74.21875 46.484375 68.546875 
Q 53.21875 62.890625 53.21875 53.421875 
Q 53.21875 48.921875 51.53125 44.890625 
Q 49.859375 40.875 45.40625 35.40625 
Q 44.1875 33.984375 37.640625 27.21875 
Q 31.109375 20.453125 19.1875 8.296875 
z
" id="DejaVuSans-50"/>
       <path d="M 10.796875 72.90625 
L 49.515625 72.90625 
L 49.515625 64.59375 
L 19.828125 64.59375 
L 19.828125 46.734375 
Q 21.96875 47.46875 24.109375 47.828125 
Q 26.265625 48.1875 28.421875 48.1875 
Q 40.625 48.1875 47.75 41.5 
Q 54.890625 34.8125 54.890625 23.390625 
Q 54.890625 11.625 47.5625 5.09375 
Q 40.234375 -1.421875 26.90625 -1.421875 
Q 22.3125 -1.421875 17.546875 -0.640625 
Q 12.796875 0.140625 7.71875 1.703125 
L 7.71875 11.625 
Q 12.109375 9.234375 16.796875 8.0625 
Q 21.484375 6.890625 26.703125 6.890625 
Q 35.15625 6.890625 40.078125 11.328125 
Q 45.015625 15.765625 45.015625 23.390625 
Q 45.015625 31 40.078125 35.4375 
Q 35.15625 39.890625 26.703125 39.890625 
Q 22.75 39.890625 18.8125 39.015625 
Q 14.890625 38.140625 10.796875 36.28125 
z
" id="DejaVuSans-53"/>
      </defs>
      <g transform="translate(172.728866 644.598438)scale(0.1 -0.1)">
       <use xlink:href="#DejaVuSans-50"/>
       <use x="63.623047" xlink:href="#DejaVuSans-53"/>
      </g>
     </g>
    </g>
    <g id="xtick_3">
     <g id="line2d_3">
      <g>
       <use style="stroke:#000000;stroke-width:0.8;" x="242.819095" xlink:href="#m0f8cef2c3b" y="630"/>
      </g>
     </g>
     <g id="text_3">
      <!-- 50 -->
      <g transform="translate(236.456595 644.598438)scale(0.1 -0.1)">
       <use xlink:href="#DejaVuSans-53"/>
       <use x="63.623047" xlink:href="#DejaVuSans-48"/>
      </g>
     </g>
    </g>
    <g id="xtick_4">
     <g id="line2d_4">
      <g>
       <use style="stroke:#000000;stroke-width:0.8;" x="306.546825" xlink:href="#m0f8cef2c3b" y="630"/>
      </g>
     </g>
     <g id="text_4">
      <!-- 75 -->
      <defs>
       <path d="M 8.203125 72.90625 
L 55.078125 72.90625 
L 55.078125 68.703125 
L 28.609375 0 
L 18.3125 0 
L 43.21875 64.59375 
L 8.203125 64.59375 
z
" id="DejaVuSans-55"/>
      </defs>
      <g transform="translate(300.184325 644.598438)scale(0.1 -0.1)">
       <use xlink:href="#DejaVuSans-55"/>
       <use x="63.623047" xlink:href="#DejaVuSans-53"/>
      </g>
     </g>
    </g>
    <g id="xtick_5">
     <g id="line2d_5">
      <g>
       <use style="stroke:#000000;stroke-width:0.8;" x="370.274555" xlink:href="#m0f8cef2c3b" y="630"/>
      </g>
     </g>
     <g id="text_5">
      <!-- 100 -->
      <defs>
       <path d="M 12.40625 8.296875 
L 28.515625 8.296875 
L 28.515625 63.921875 
L 10.984375 60.40625 
L 10.984375 69.390625 
L 28.421875 72.90625 
L 38.28125 72.90625 
L 38.28125 8.296875 
L 54.390625 8.296875 
L 54.390625 0 
L 12.40625 0 
z
" id="DejaVuSans-49"/>
      </defs>
      <g transform="translate(360.730805 644.598438)scale(0.1 -0.1)">
       <use xlink:href="#DejaVuSans-49"/>
       <use x="63.623047" xlink:href="#DejaVuSans-48"/>
       <use x="127.246094" xlink:href="#DejaVuSans-48"/>
      </g>
     </g>
    </g>
    <g id="xtick_6">
     <g id="line2d_6">
      <g>
       <use style="stroke:#000000;stroke-width:0.8;" x="434.002284" xlink:href="#m0f8cef2c3b" y="630"/>
      </g>
     </g>
     <g id="text_6">
      <!-- 125 -->
      <g transform="translate(424.458534 644.598438)scale(0.1 -0.1)">
       <use xlink:href="#DejaVuSans-49"/>
       <use x="63.623047" xlink:href="#DejaVuSans-50"/>
       <use x="127.246094" xlink:href="#DejaVuSans-53"/>
      </g>
     </g>
    </g>
    <g id="xtick_7">
     <g id="line2d_7">
      <g>
       <use style="stroke:#000000;stroke-width:0.8;" x="497.730014" xlink:href="#m0f8cef2c3b" y="630"/>
      </g>
     </g>
     <g id="text_7">
      <!-- 150 -->
      <g transform="translate(488.186264 644.598438)scale(0.1 -0.1)">
       <use xlink:href="#DejaVuSans-49"/>
       <use x="63.623047" xlink:href="#DejaVuSans-53"/>
       <use x="127.246094" xlink:href="#DejaVuSans-48"/>
      </g>
     </g>
    </g>
    <g id="xtick_8">
     <g id="line2d_8">
      <g>
       <use style="stroke:#000000;stroke-width:0.8;" x="561.457743" xlink:href="#m0f8cef2c3b" y="630"/>
      </g>
     </g>
     <g id="text_8">
      <!-- 175 -->
      <g transform="translate(551.913993 644.598438)scale(0.1 -0.1)">
       <use xlink:href="#DejaVuSans-49"/>
       <use x="63.623047" xlink:href="#DejaVuSans-55"/>
       <use x="127.246094" xlink:href="#DejaVuSans-53"/>
      </g>
     </g>
    </g>
    <g id="xtick_9">
     <g id="line2d_9">
      <g>
       <use style="stroke:#000000;stroke-width:0.8;" x="625.185473" xlink:href="#m0f8cef2c3b" y="630"/>
      </g>
     </g>
     <g id="text_9">
      <!-- 200 -->
      <g transform="translate(615.641723 644.598438)scale(0.1 -0.1)">
       <use xlink:href="#DejaVuSans-50"/>
       <use x="63.623047" xlink:href="#DejaVuSans-48"/>
       <use x="127.246094" xlink:href="#DejaVuSans-48"/>
      </g>
     </g>
    </g>
    <g id="text_10">
     <!-- Epoch -->
     <defs>
      <path d="M 9.8125 72.90625 
L 55.90625 72.90625 
L 55.90625 64.59375 
L 19.671875 64.59375 
L 19.671875 43.015625 
L 54.390625 43.015625 
L 54.390625 34.71875 
L 19.671875 34.71875 
L 19.671875 8.296875 
L 56.78125 8.296875 
L 56.78125 0 
L 9.8125 0 
z
" id="DejaVuSans-69"/>
      <path d="M 18.109375 8.203125 
L 18.109375 -20.796875 
L 9.078125 -20.796875 
L 9.078125 54.6875 
L 18.109375 54.6875 
L 18.109375 46.390625 
Q 20.953125 51.265625 25.265625 53.625 
Q 29.59375 56 35.59375 56 
Q 45.5625 56 51.78125 48.09375 
Q 58.015625 40.1875 58.015625 27.296875 
Q 58.015625 14.40625 51.78125 6.484375 
Q 45.5625 -1.421875 35.59375 -1.421875 
Q 29.59375 -1.421875 25.265625 0.953125 
Q 20.953125 3.328125 18.109375 8.203125 
z
M 48.6875 27.296875 
Q 48.6875 37.203125 44.609375 42.84375 
Q 40.53125 48.484375 33.40625 48.484375 
Q 26.265625 48.484375 22.1875 42.84375 
Q 18.109375 37.203125 18.109375 27.296875 
Q 18.109375 17.390625 22.1875 11.75 
Q 26.265625 6.109375 33.40625 6.109375 
Q 40.53125 6.109375 44.609375 11.75 
Q 48.6875 17.390625 48.6875 27.296875 
z
" id="DejaVuSans-112"/>
      <path d="M 30.609375 48.390625 
Q 23.390625 48.390625 19.1875 42.75 
Q 14.984375 37.109375 14.984375 27.296875 
Q 14.984375 17.484375 19.15625 11.84375 
Q 23.34375 6.203125 30.609375 6.203125 
Q 37.796875 6.203125 41.984375 11.859375 
Q 46.1875 17.53125 46.1875 27.296875 
Q 46.1875 37.015625 41.984375 42.703125 
Q 37.796875 48.390625 30.609375 48.390625 
z
M 30.609375 56 
Q 42.328125 56 49.015625 48.375 
Q 55.71875 40.765625 55.71875 27.296875 
Q 55.71875 13.875 49.015625 6.21875 
Q 42.328125 -1.421875 30.609375 -1.421875 
Q 18.84375 -1.421875 12.171875 6.21875 
Q 5.515625 13.875 5.515625 27.296875 
Q 5.515625 40.765625 12.171875 48.375 
Q 18.84375 56 30.609375 56 
z
" id="DejaVuSans-111"/>
      <path d="M 48.78125 52.59375 
L 48.78125 44.1875 
Q 44.96875 46.296875 41.140625 47.34375 
Q 37.3125 48.390625 33.40625 48.390625 
Q 24.65625 48.390625 19.8125 42.84375 
Q 14.984375 37.3125 14.984375 27.296875 
Q 14.984375 17.28125 19.8125 11.734375 
Q 24.65625 6.203125 33.40625 6.203125 
Q 37.3125 6.203125 41.140625 7.25 
Q 44.96875 8.296875 48.78125 10.40625 
L 48.78125 2.09375 
Q 45.015625 0.34375 40.984375 -0.53125 
Q 36.96875 -1.421875 32.421875 -1.421875 
Q 20.0625 -1.421875 12.78125 6.34375 
Q 5.515625 14.109375 5.515625 27.296875 
Q 5.515625 40.671875 12.859375 48.328125 
Q 20.21875 56 33.015625 56 
Q 37.15625 56 41.109375 55.140625 
Q 45.0625 54.296875 48.78125 52.59375 
z
" id="DejaVuSans-99"/>
      <path d="M 54.890625 33.015625 
L 54.890625 0 
L 45.90625 0 
L 45.90625 32.71875 
Q 45.90625 40.484375 42.875 44.328125 
Q 39.84375 48.1875 33.796875 48.1875 
Q 26.515625 48.1875 22.3125 43.546875 
Q 18.109375 38.921875 18.109375 30.90625 
L 18.109375 0 
L 9.078125 0 
L 9.078125 75.984375 
L 18.109375 75.984375 
L 18.109375 46.1875 
Q 21.34375 51.125 25.703125 53.5625 
Q 30.078125 56 35.796875 56 
Q 45.21875 56 50.046875 50.171875 
Q 54.890625 44.34375 54.890625 33.015625 
z
" id="DejaVuSans-104"/>
     </defs>
     <g transform="translate(353.689062 658.276562)scale(0.1 -0.1)">
      <use xlink:href="#DejaVuSans-69"/>
      <use x="63.183594" xlink:href="#DejaVuSans-112"/>
      <use x="126.660156" xlink:href="#DejaVuSans-111"/>
      <use x="187.841797" xlink:href="#DejaVuSans-99"/>
      <use x="242.822266" xlink:href="#DejaVuSans-104"/>
     </g>
    </g>
   </g>
   <g id="matplotlib.axis_2">
    <g id="ytick_1">
     <g id="line2d_10">
      <defs>
       <path d="M 0 0 
L -3.5 0 
" id="m60b3a60c76" style="stroke:#000000;stroke-width:0.8;"/>
      </defs>
      <g>
       <use style="stroke:#000000;stroke-width:0.8;" x="90" xlink:href="#m60b3a60c76" y="592.445197"/>
      </g>
     </g>
     <g id="text_11">
      <!-- 0.8 -->
      <defs>
       <path d="M 10.6875 12.40625 
L 21 12.40625 
L 21 0 
L 10.6875 0 
z
" id="DejaVuSans-46"/>
       <path d="M 31.78125 34.625 
Q 24.75 34.625 20.71875 30.859375 
Q 16.703125 27.09375 16.703125 20.515625 
Q 16.703125 13.921875 20.71875 10.15625 
Q 24.75 6.390625 31.78125 6.390625 
Q 38.8125 6.390625 42.859375 10.171875 
Q 46.921875 13.96875 46.921875 20.515625 
Q 46.921875 27.09375 42.890625 30.859375 
Q 38.875 34.625 31.78125 34.625 
z
M 21.921875 38.8125 
Q 15.578125 40.375 12.03125 44.71875 
Q 8.5 49.078125 8.5 55.328125 
Q 8.5 64.0625 14.71875 69.140625 
Q 20.953125 74.21875 31.78125 74.21875 
Q 42.671875 74.21875 48.875 69.140625 
Q 55.078125 64.0625 55.078125 55.328125 
Q 55.078125 49.078125 51.53125 44.71875 
Q 48 40.375 41.703125 38.8125 
Q 48.828125 37.15625 52.796875 32.3125 
Q 56.78125 27.484375 56.78125 20.515625 
Q 56.78125 9.90625 50.3125 4.234375 
Q 43.84375 -1.421875 31.78125 -1.421875 
Q 19.734375 -1.421875 13.25 4.234375 
Q 6.78125 9.90625 6.78125 20.515625 
Q 6.78125 27.484375 10.78125 32.3125 
Q 14.796875 37.15625 21.921875 38.8125 
z
M 18.3125 54.390625 
Q 18.3125 48.734375 21.84375 45.5625 
Q 25.390625 42.390625 31.78125 42.390625 
Q 38.140625 42.390625 41.71875 45.5625 
Q 45.3125 48.734375 45.3125 54.390625 
Q 45.3125 60.0625 41.71875 63.234375 
Q 38.140625 66.40625 31.78125 66.40625 
Q 25.390625 66.40625 21.84375 63.234375 
Q 18.3125 60.0625 18.3125 54.390625 
z
" id="DejaVuSans-56"/>
      </defs>
      <g transform="translate(67.096875 596.244416)scale(0.1 -0.1)">
       <use xlink:href="#DejaVuSans-48"/>
       <use x="63.623047" xlink:href="#DejaVuSans-46"/>
       <use x="95.410156" xlink:href="#DejaVuSans-56"/>
      </g>
     </g>
    </g>
    <g id="ytick_2">
     <g id="line2d_11">
      <g>
       <use style="stroke:#000000;stroke-width:0.8;" x="90" xlink:href="#m60b3a60c76" y="511.735246"/>
      </g>
     </g>
     <g id="text_12">
      <!-- 1.0 -->
      <g transform="translate(67.096875 515.534465)scale(0.1 -0.1)">
       <use xlink:href="#DejaVuSans-49"/>
       <use x="63.623047" xlink:href="#DejaVuSans-46"/>
       <use x="95.410156" xlink:href="#DejaVuSans-48"/>
      </g>
     </g>
    </g>
    <g id="ytick_3">
     <g id="line2d_12">
      <g>
       <use style="stroke:#000000;stroke-width:0.8;" x="90" xlink:href="#m60b3a60c76" y="431.025295"/>
      </g>
     </g>
     <g id="text_13">
      <!-- 1.2 -->
      <g transform="translate(67.096875 434.824514)scale(0.1 -0.1)">
       <use xlink:href="#DejaVuSans-49"/>
       <use x="63.623047" xlink:href="#DejaVuSans-46"/>
       <use x="95.410156" xlink:href="#DejaVuSans-50"/>
      </g>
     </g>
    </g>
    <g id="ytick_4">
     <g id="line2d_13">
      <g>
       <use style="stroke:#000000;stroke-width:0.8;" x="90" xlink:href="#m60b3a60c76" y="350.315345"/>
      </g>
     </g>
     <g id="text_14">
      <!-- 1.4 -->
      <defs>
       <path d="M 37.796875 64.3125 
L 12.890625 25.390625 
L 37.796875 25.390625 
z
M 35.203125 72.90625 
L 47.609375 72.90625 
L 47.609375 25.390625 
L 58.015625 25.390625 
L 58.015625 17.1875 
L 47.609375 17.1875 
L 47.609375 0 
L 37.796875 0 
L 37.796875 17.1875 
L 4.890625 17.1875 
L 4.890625 26.703125 
z
" id="DejaVuSans-52"/>
      </defs>
      <g transform="translate(67.096875 354.114563)scale(0.1 -0.1)">
       <use xlink:href="#DejaVuSans-49"/>
       <use x="63.623047" xlink:href="#DejaVuSans-46"/>
       <use x="95.410156" xlink:href="#DejaVuSans-52"/>
      </g>
     </g>
    </g>
    <g id="ytick_5">
     <g id="line2d_14">
      <g>
       <use style="stroke:#000000;stroke-width:0.8;" x="90" xlink:href="#m60b3a60c76" y="269.605394"/>
      </g>
     </g>
     <g id="text_15">
      <!-- 1.6 -->
      <defs>
       <path d="M 33.015625 40.375 
Q 26.375 40.375 22.484375 35.828125 
Q 18.609375 31.296875 18.609375 23.390625 
Q 18.609375 15.53125 22.484375 10.953125 
Q 26.375 6.390625 33.015625 6.390625 
Q 39.65625 6.390625 43.53125 10.953125 
Q 47.40625 15.53125 47.40625 23.390625 
Q 47.40625 31.296875 43.53125 35.828125 
Q 39.65625 40.375 33.015625 40.375 
z
M 52.59375 71.296875 
L 52.59375 62.3125 
Q 48.875 64.0625 45.09375 64.984375 
Q 41.3125 65.921875 37.59375 65.921875 
Q 27.828125 65.921875 22.671875 59.328125 
Q 17.53125 52.734375 16.796875 39.40625 
Q 19.671875 43.65625 24.015625 45.921875 
Q 28.375 48.1875 33.59375 48.1875 
Q 44.578125 48.1875 50.953125 41.515625 
Q 57.328125 34.859375 57.328125 23.390625 
Q 57.328125 12.15625 50.6875 5.359375 
Q 44.046875 -1.421875 33.015625 -1.421875 
Q 20.359375 -1.421875 13.671875 8.265625 
Q 6.984375 17.96875 6.984375 36.375 
Q 6.984375 53.65625 15.1875 63.9375 
Q 23.390625 74.21875 37.203125 74.21875 
Q 40.921875 74.21875 44.703125 73.484375 
Q 48.484375 72.75 52.59375 71.296875 
z
" id="DejaVuSans-54"/>
      </defs>
      <g transform="translate(67.096875 273.404613)scale(0.1 -0.1)">
       <use xlink:href="#DejaVuSans-49"/>
       <use x="63.623047" xlink:href="#DejaVuSans-46"/>
       <use x="95.410156" xlink:href="#DejaVuSans-54"/>
      </g>
     </g>
    </g>
    <g id="ytick_6">
     <g id="line2d_15">
      <g>
       <use style="stroke:#000000;stroke-width:0.8;" x="90" xlink:href="#m60b3a60c76" y="188.895443"/>
      </g>
     </g>
     <g id="text_16">
      <!-- 1.8 -->
      <g transform="translate(67.096875 192.694662)scale(0.1 -0.1)">
       <use xlink:href="#DejaVuSans-49"/>
       <use x="63.623047" xlink:href="#DejaVuSans-46"/>
       <use x="95.410156" xlink:href="#DejaVuSans-56"/>
      </g>
     </g>
    </g>
    <g id="ytick_7">
     <g id="line2d_16">
      <g>
       <use style="stroke:#000000;stroke-width:0.8;" x="90" xlink:href="#m60b3a60c76" y="108.185492"/>
      </g>
     </g>
     <g id="text_17">
      <!-- 2.0 -->
      <g transform="translate(67.096875 111.984711)scale(0.1 -0.1)">
       <use xlink:href="#DejaVuSans-50"/>
       <use x="63.623047" xlink:href="#DejaVuSans-46"/>
       <use x="95.410156" xlink:href="#DejaVuSans-48"/>
      </g>
     </g>
    </g>
    <g id="text_18">
     <!-- Loss -->
     <defs>
      <path d="M 9.8125 72.90625 
L 19.671875 72.90625 
L 19.671875 8.296875 
L 55.171875 8.296875 
L 55.171875 0 
L 9.8125 0 
z
" id="DejaVuSans-76"/>
      <path d="M 44.28125 53.078125 
L 44.28125 44.578125 
Q 40.484375 46.53125 36.375 47.5 
Q 32.28125 48.484375 27.875 48.484375 
Q 21.1875 48.484375 17.84375 46.4375 
Q 14.5 44.390625 14.5 40.28125 
Q 14.5 37.15625 16.890625 35.375 
Q 19.28125 33.59375 26.515625 31.984375 
L 29.59375 31.296875 
Q 39.15625 29.25 43.1875 25.515625 
Q 47.21875 21.78125 47.21875 15.09375 
Q 47.21875 7.46875 41.1875 3.015625 
Q 35.15625 -1.421875 24.609375 -1.421875 
Q 20.21875 -1.421875 15.453125 -0.5625 
Q 10.6875 0.296875 5.421875 2 
L 5.421875 11.28125 
Q 10.40625 8.6875 15.234375 7.390625 
Q 20.0625 6.109375 24.8125 6.109375 
Q 31.15625 6.109375 34.5625 8.28125 
Q 37.984375 10.453125 37.984375 14.40625 
Q 37.984375 18.0625 35.515625 20.015625 
Q 33.0625 21.96875 24.703125 23.78125 
L 21.578125 24.515625 
Q 13.234375 26.265625 9.515625 29.90625 
Q 5.8125 33.546875 5.8125 39.890625 
Q 5.8125 47.609375 11.28125 51.796875 
Q 16.75 56 26.8125 56 
Q 31.78125 56 36.171875 55.265625 
Q 40.578125 54.546875 44.28125 53.078125 
z
" id="DejaVuSans-115"/>
     </defs>
     <g transform="translate(61.017187 369.253906)rotate(-90)scale(0.1 -0.1)">
      <use xlink:href="#DejaVuSans-76"/>
      <use x="55.697266" xlink:href="#DejaVuSans-111"/>
      <use x="116.878906" xlink:href="#DejaVuSans-115"/>
      <use x="168.978516" xlink:href="#DejaVuSans-115"/>
     </g>
    </g>
   </g>
   <g id="line2d_17">
    <path clip-path="url(#p8e9a0a105d)" d="M 115.363636 111.109091 
L 117.912746 156.040276 
L 123.010964 200.523616 
L 125.560073 192.858045 
L 128.109182 205.301237 
L 130.658291 214.437475 
L 133.207401 226.864407 
L 135.75651 226.455238 
L 138.305619 238.028444 
L 140.854728 241.058757 
L 145.952947 253.505308 
L 148.502056 249.924002 
L 151.051165 255.611108 
L 153.600274 262.68498 
L 156.149383 279.071845 
L 158.698492 282.314339 
L 161.247602 285.291305 
L 163.796711 285.459384 
L 166.34582 287.288665 
L 168.894929 295.259222 
L 171.444038 297.071322 
L 173.993148 297.939806 
L 176.542257 311.431214 
L 179.091366 314.917433 
L 181.640475 327.066278 
L 184.189584 319.219055 
L 186.738693 320.409327 
L 189.287803 336.749115 
L 191.836912 331.236005 
L 194.386021 326.002636 
L 196.93513 329.520815 
L 199.484239 326.372505 
L 202.033349 349.012632 
L 204.582458 357.085829 
L 207.131567 354.641851 
L 209.680676 348.514208 
L 212.229785 346.60819 
L 214.778894 364.281478 
L 217.328004 362.32894 
L 219.877113 373.926312 
L 222.426222 374.121459 
L 224.975331 362.711413 
L 227.52444 383.317521 
L 230.07355 388.79755 
L 232.622659 381.326685 
L 235.171768 366.18126 
L 237.720877 378.274553 
L 240.269986 386.883051 
L 242.819095 379.304447 
L 245.368205 397.584632 
L 247.917314 385.733533 
L 250.466423 395.468434 
L 253.015532 397.004842 
L 255.564641 399.690046 
L 258.113751 401.580327 
L 260.66286 413.768155 
L 263.211969 416.279827 
L 265.761078 395.276673 
L 268.310187 407.127625 
L 270.859296 424.979313 
L 273.408406 411.70583 
L 275.957515 407.854932 
L 278.506624 417.214929 
L 281.055733 415.624 
L 283.604842 427.805272 
L 286.153952 437.145859 
L 288.703061 428.774898 
L 291.25217 430.188377 
L 293.801279 440.274684 
L 296.350388 430.982491 
L 298.899497 431.663884 
L 301.448607 440.02233 
L 303.997716 451.217774 
L 306.546825 458.7684 
L 309.095934 435.52794 
L 311.645043 457.161423 
L 314.194153 468.835145 
L 316.743262 461.327686 
L 319.292371 456.763605 
L 321.84148 447.47629 
L 324.390589 456.550714 
L 326.939698 457.226837 
L 329.488808 451.397627 
L 332.037917 452.106784 
L 334.587026 463.682376 
L 337.136135 454.485627 
L 339.685244 466.589396 
L 342.234354 461.751171 
L 344.783463 488.293434 
L 347.332572 462.064944 
L 349.881681 468.551751 
L 352.43079 477.045296 
L 354.979899 473.344839 
L 357.529009 491.68287 
L 360.078118 483.173496 
L 362.627227 499.056814 
L 365.176336 493.884142 
L 367.725445 490.991748 
L 370.274555 487.069157 
L 372.823664 471.44405 
L 375.372773 490.780828 
L 377.921882 500.475861 
L 380.470991 486.060102 
L 383.020101 491.749324 
L 385.56921 481.916218 
L 388.118319 503.851412 
L 390.667428 502.627684 
L 393.216537 511.181041 
L 395.765646 503.116331 
L 398.314756 496.266727 
L 400.863865 515.23196 
L 403.412974 504.643633 
L 405.962083 500.581896 
L 408.511192 509.159579 
L 411.060302 520.140988 
L 413.609411 510.197783 
L 416.15852 522.106682 
L 418.707629 521.096409 
L 421.256738 522.11644 
L 423.805847 521.33427 
L 426.354957 516.371905 
L 428.904066 533.829071 
L 431.453175 522.281596 
L 434.002284 530.377192 
L 439.100503 520.3786 
L 441.649612 534.137282 
L 444.198721 527.57176 
L 446.74783 531.959736 
L 449.296939 525.972925 
L 451.846048 536.059024 
L 454.395158 517.166505 
L 456.944267 517.489376 
L 459.493376 536.080872 
L 462.042485 531.478943 
L 464.591594 524.380808 
L 467.140704 545.75809 
L 469.689813 545.219056 
L 472.238922 540.055008 
L 474.788031 535.543707 
L 477.33714 535.198291 
L 479.886249 535.012606 
L 482.435359 556.714738 
L 484.984468 540.926312 
L 487.533577 545.212799 
L 490.082686 546.968406 
L 492.631795 568.436816 
L 495.180905 562.929933 
L 497.730014 534.593631 
L 500.279123 553.137141 
L 502.828232 551.276096 
L 505.377341 559.508384 
L 507.92645 548.677788 
L 510.47556 554.971451 
L 513.024669 552.101059 
L 515.573778 562.824877 
L 518.122887 566.53467 
L 520.671996 564.270292 
L 523.221106 568.107118 
L 525.770215 555.17171 
L 528.319324 549.574457 
L 530.868433 562.447792 
L 533.417542 569.384053 
L 535.966651 569.094481 
L 538.515761 560.7825 
L 541.06487 569.443567 
L 543.613979 572.248331 
L 546.163088 558.585312 
L 551.261307 580.115095 
L 553.810416 560.624285 
L 556.359525 571.854179 
L 558.908634 566.872583 
L 561.457743 575.705043 
L 564.006852 597.878966 
L 566.555962 567.264244 
L 569.105071 584.728728 
L 571.65418 573.579594 
L 574.203289 586.52055 
L 576.752398 569.836699 
L 579.301508 576.265039 
L 581.850617 593.914436 
L 584.399726 592.81736 
L 586.948835 576.43989 
L 589.497944 587.074359 
L 592.047053 575.223864 
L 594.596163 575.143432 
L 597.145272 586.407389 
L 599.694381 585.694382 
L 602.24349 581.976885 
L 604.792599 590.980596 
L 607.341709 586.510867 
L 609.890818 589.660293 
L 612.439927 589.978642 
L 614.989036 587.92996 
L 617.538145 582.318103 
L 620.087254 585.095805 
L 622.636364 605.290909 
L 622.636364 605.290909 
" style="fill:none;stroke:#1f77b4;stroke-linecap:square;stroke-width:1.5;"/>
   </g>
   <g id="line2d_18">
    <path clip-path="url(#p8e9a0a105d)" d="M 115.363636 183.625197 
L 117.912746 198.749892 
L 120.461855 204.929377 
L 123.010964 210.685894 
L 125.560073 216.791102 
L 128.109182 218.267021 
L 133.207401 227.66707 
L 135.75651 228.239409 
L 138.305619 230.520397 
L 140.854728 233.614018 
L 143.403837 237.707745 
L 145.952947 239.982828 
L 148.502056 246.488658 
L 151.051165 249.958703 
L 153.600274 251.133858 
L 156.149383 255.907708 
L 158.698492 259.636003 
L 161.247602 261.965495 
L 163.796711 263.839955 
L 166.34582 267.540228 
L 168.894929 268.079242 
L 171.444038 271.709603 
L 173.993148 272.41396 
L 176.542257 273.545602 
L 179.091366 276.181522 
L 181.640475 276.270051 
L 184.189584 279.709621 
L 189.287803 283.431337 
L 191.836912 288.563644 
L 194.386021 288.409942 
L 196.93513 289.108827 
L 199.484239 289.127024 
L 202.033349 290.623472 
L 204.582458 294.958816 
L 207.131567 296.479414 
L 209.680676 298.523668 
L 212.229785 301.478164 
L 214.778894 303.131141 
L 217.328004 302.434168 
L 219.877113 300.86159 
L 222.426222 300.171052 
L 224.975331 305.661983 
L 227.52444 312.012945 
L 230.07355 315.686639 
L 232.622659 314.832935 
L 235.171768 322.213023 
L 237.720877 324.386829 
L 240.269986 317.812254 
L 242.819095 321.882132 
L 245.368205 323.797796 
L 247.917314 331.528932 
L 250.466423 335.738801 
L 253.015532 328.069158 
L 255.564641 328.907733 
L 258.113751 328.712744 
L 263.211969 337.461376 
L 265.761078 336.85013 
L 268.310187 334.551031 
L 273.408406 345.190817 
L 275.957515 346.331239 
L 278.506624 346.072905 
L 281.055733 352.215107 
L 283.604842 350.099896 
L 286.153952 349.652333 
L 288.703061 351.119785 
L 291.25217 350.05239 
L 293.801279 348.330512 
L 296.350388 354.122581 
L 298.899497 352.453416 
L 301.448607 346.125618 
L 303.997716 347.568524 
L 306.546825 356.276795 
L 309.095934 358.845678 
L 311.645043 355.234283 
L 314.194153 355.523453 
L 319.292371 359.373759 
L 321.84148 356.407285 
L 324.390589 361.735146 
L 326.939698 365.050095 
L 329.488808 370.744542 
L 332.037917 366.208099 
L 334.587026 365.366 
L 337.136135 364.199433 
L 339.685244 366.607134 
L 342.234354 361.450497 
L 344.783463 365.157902 
L 347.332572 367.846812 
L 349.881681 372.58837 
L 352.43079 368.008704 
L 354.979899 365.390354 
L 357.529009 361.621301 
L 360.078118 360.846792 
L 362.627227 359.887493 
L 365.176336 368.718569 
L 367.725445 372.207797 
L 370.274555 377.083898 
L 372.823664 372.889712 
L 375.372773 373.433079 
L 377.921882 374.205086 
L 380.470991 381.657792 
L 383.020101 388.412311 
L 385.56921 380.774261 
L 388.118319 385.314216 
L 390.667428 389.003809 
L 393.216537 381.269533 
L 395.765646 387.56047 
L 398.314756 389.941015 
L 400.863865 388.324467 
L 403.412974 381.831542 
L 405.962083 376.992158 
L 411.060302 379.607465 
L 413.609411 377.345467 
L 416.15852 379.250211 
L 418.707629 381.840911 
L 421.256738 381.477235 
L 423.805847 376.738407 
L 426.354957 387.880489 
L 428.904066 385.500497 
L 431.453175 387.326328 
L 434.002284 391.174018 
L 436.551393 388.933573 
L 439.100503 380.214369 
L 441.649612 381.888783 
L 444.198721 384.489375 
L 446.74783 378.95012 
L 449.296939 378.582403 
L 451.846048 380.064733 
L 454.395158 392.252358 
L 456.944267 388.373115 
L 459.493376 391.368406 
L 462.042485 391.029229 
L 464.591594 389.343299 
L 467.140704 386.033702 
L 469.689813 388.415125 
L 472.238922 392.854981 
L 474.788031 389.268216 
L 477.33714 386.244134 
L 479.886249 391.19978 
L 482.435359 398.701326 
L 484.984468 398.507936 
L 487.533577 402.851013 
L 490.082686 402.942031 
L 492.631795 403.596622 
L 495.180905 390.696341 
L 497.730014 391.663307 
L 500.279123 401.609146 
L 502.828232 399.255697 
L 505.377341 401.148643 
L 507.92645 398.484586 
L 510.47556 396.918316 
L 513.024669 397.266057 
L 515.573778 395.95868 
L 518.122887 398.345028 
L 520.671996 392.458388 
L 523.221106 393.341023 
L 525.770215 396.444019 
L 528.319324 393.121054 
L 530.868433 401.937379 
L 533.417542 397.745923 
L 535.966651 398.439871 
L 538.515761 400.798533 
L 541.06487 394.184463 
L 543.613979 398.321245 
L 546.163088 399.936572 
L 548.712197 396.794279 
L 551.261307 399.694192 
L 553.810416 407.119681 
L 556.359525 405.350111 
L 558.908634 405.738995 
L 561.457743 412.795788 
L 564.006852 405.279172 
L 566.555962 401.131367 
L 569.105071 398.993587 
L 571.65418 403.652137 
L 574.203289 400.343983 
L 576.752398 399.760976 
L 579.301508 403.522778 
L 581.850617 401.880794 
L 584.399726 405.397803 
L 586.948835 410.869468 
L 589.497944 412.4864 
L 592.047053 402.626751 
L 594.596163 396.90208 
L 597.145272 406.607908 
L 599.694381 410.311957 
L 602.24349 413.632138 
L 604.792599 413.712506 
L 607.341709 413.192826 
L 609.890818 415.336661 
L 612.439927 418.048037 
L 614.989036 414.526649 
L 617.538145 412.884467 
L 620.087254 404.214464 
L 622.636364 408.056887 
L 622.636364 408.056887 
" style="fill:none;stroke:#ff7f0e;stroke-linecap:square;stroke-width:1.5;"/>
   </g>
   <g id="patch_3">
    <path d="M 90 630 
L 90 86.4 
" style="fill:none;stroke:#000000;stroke-linecap:square;stroke-linejoin:miter;stroke-width:0.8;"/>
   </g>
   <g id="patch_4">
    <path d="M 648 630 
L 648 86.4 
" style="fill:none;stroke:#000000;stroke-linecap:square;stroke-linejoin:miter;stroke-width:0.8;"/>
   </g>
   <g id="patch_5">
    <path d="M 90 630 
L 648 630 
" style="fill:none;stroke:#000000;stroke-linecap:square;stroke-linejoin:miter;stroke-width:0.8;"/>
   </g>
   <g id="patch_6">
    <path d="M 90 86.4 
L 648 86.4 
" style="fill:none;stroke:#000000;stroke-linecap:square;stroke-linejoin:miter;stroke-width:0.8;"/>
   </g>
   <g id="text_19">
    <!-- Best model categorical crossentropy loss -->
    <defs>
     <path d="M 19.671875 34.8125 
L 19.671875 8.109375 
L 35.5 8.109375 
Q 43.453125 8.109375 47.28125 11.40625 
Q 51.125 14.703125 51.125 21.484375 
Q 51.125 28.328125 47.28125 31.5625 
Q 43.453125 34.8125 35.5 34.8125 
z
M 19.671875 64.796875 
L 19.671875 42.828125 
L 34.28125 42.828125 
Q 41.5 42.828125 45.03125 45.53125 
Q 48.578125 48.25 48.578125 53.8125 
Q 48.578125 59.328125 45.03125 62.0625 
Q 41.5 64.796875 34.28125 64.796875 
z
M 9.8125 72.90625 
L 35.015625 72.90625 
Q 46.296875 72.90625 52.390625 68.21875 
Q 58.5 63.53125 58.5 54.890625 
Q 58.5 48.1875 55.375 44.234375 
Q 52.25 40.28125 46.1875 39.3125 
Q 53.46875 37.75 57.5 32.78125 
Q 61.53125 27.828125 61.53125 20.40625 
Q 61.53125 10.640625 54.890625 5.3125 
Q 48.25 0 35.984375 0 
L 9.8125 0 
z
" id="DejaVuSans-66"/>
     <path d="M 56.203125 29.59375 
L 56.203125 25.203125 
L 14.890625 25.203125 
Q 15.484375 15.921875 20.484375 11.0625 
Q 25.484375 6.203125 34.421875 6.203125 
Q 39.59375 6.203125 44.453125 7.46875 
Q 49.3125 8.734375 54.109375 11.28125 
L 54.109375 2.78125 
Q 49.265625 0.734375 44.1875 -0.34375 
Q 39.109375 -1.421875 33.890625 -1.421875 
Q 20.796875 -1.421875 13.15625 6.1875 
Q 5.515625 13.8125 5.515625 26.8125 
Q 5.515625 40.234375 12.765625 48.109375 
Q 20.015625 56 32.328125 56 
Q 43.359375 56 49.78125 48.890625 
Q 56.203125 41.796875 56.203125 29.59375 
z
M 47.21875 32.234375 
Q 47.125 39.59375 43.09375 43.984375 
Q 39.0625 48.390625 32.421875 48.390625 
Q 24.90625 48.390625 20.390625 44.140625 
Q 15.875 39.890625 15.1875 32.171875 
z
" id="DejaVuSans-101"/>
     <path d="M 18.3125 70.21875 
L 18.3125 54.6875 
L 36.8125 54.6875 
L 36.8125 47.703125 
L 18.3125 47.703125 
L 18.3125 18.015625 
Q 18.3125 11.328125 20.140625 9.421875 
Q 21.96875 7.515625 27.59375 7.515625 
L 36.8125 7.515625 
L 36.8125 0 
L 27.59375 0 
Q 17.1875 0 13.234375 3.875 
Q 9.28125 7.765625 9.28125 18.015625 
L 9.28125 47.703125 
L 2.6875 47.703125 
L 2.6875 54.6875 
L 9.28125 54.6875 
L 9.28125 70.21875 
z
" id="DejaVuSans-116"/>
     <path id="DejaVuSans-32"/>
     <path d="M 52 44.1875 
Q 55.375 50.25 60.0625 53.125 
Q 64.75 56 71.09375 56 
Q 79.640625 56 84.28125 50.015625 
Q 88.921875 44.046875 88.921875 33.015625 
L 88.921875 0 
L 79.890625 0 
L 79.890625 32.71875 
Q 79.890625 40.578125 77.09375 44.375 
Q 74.3125 48.1875 68.609375 48.1875 
Q 61.625 48.1875 57.5625 43.546875 
Q 53.515625 38.921875 53.515625 30.90625 
L 53.515625 0 
L 44.484375 0 
L 44.484375 32.71875 
Q 44.484375 40.625 41.703125 44.40625 
Q 38.921875 48.1875 33.109375 48.1875 
Q 26.21875 48.1875 22.15625 43.53125 
Q 18.109375 38.875 18.109375 30.90625 
L 18.109375 0 
L 9.078125 0 
L 9.078125 54.6875 
L 18.109375 54.6875 
L 18.109375 46.1875 
Q 21.1875 51.21875 25.484375 53.609375 
Q 29.78125 56 35.6875 56 
Q 41.65625 56 45.828125 52.96875 
Q 50 49.953125 52 44.1875 
z
" id="DejaVuSans-109"/>
     <path d="M 45.40625 46.390625 
L 45.40625 75.984375 
L 54.390625 75.984375 
L 54.390625 0 
L 45.40625 0 
L 45.40625 8.203125 
Q 42.578125 3.328125 38.25 0.953125 
Q 33.9375 -1.421875 27.875 -1.421875 
Q 17.96875 -1.421875 11.734375 6.484375 
Q 5.515625 14.40625 5.515625 27.296875 
Q 5.515625 40.1875 11.734375 48.09375 
Q 17.96875 56 27.875 56 
Q 33.9375 56 38.25 53.625 
Q 42.578125 51.265625 45.40625 46.390625 
z
M 14.796875 27.296875 
Q 14.796875 17.390625 18.875 11.75 
Q 22.953125 6.109375 30.078125 6.109375 
Q 37.203125 6.109375 41.296875 11.75 
Q 45.40625 17.390625 45.40625 27.296875 
Q 45.40625 37.203125 41.296875 42.84375 
Q 37.203125 48.484375 30.078125 48.484375 
Q 22.953125 48.484375 18.875 42.84375 
Q 14.796875 37.203125 14.796875 27.296875 
z
" id="DejaVuSans-100"/>
     <path d="M 9.421875 75.984375 
L 18.40625 75.984375 
L 18.40625 0 
L 9.421875 0 
z
" id="DejaVuSans-108"/>
     <path d="M 34.28125 27.484375 
Q 23.390625 27.484375 19.1875 25 
Q 14.984375 22.515625 14.984375 16.5 
Q 14.984375 11.71875 18.140625 8.90625 
Q 21.296875 6.109375 26.703125 6.109375 
Q 34.1875 6.109375 38.703125 11.40625 
Q 43.21875 16.703125 43.21875 25.484375 
L 43.21875 27.484375 
z
M 52.203125 31.203125 
L 52.203125 0 
L 43.21875 0 
L 43.21875 8.296875 
Q 40.140625 3.328125 35.546875 0.953125 
Q 30.953125 -1.421875 24.3125 -1.421875 
Q 15.921875 -1.421875 10.953125 3.296875 
Q 6 8.015625 6 15.921875 
Q 6 25.140625 12.171875 29.828125 
Q 18.359375 34.515625 30.609375 34.515625 
L 43.21875 34.515625 
L 43.21875 35.40625 
Q 43.21875 41.609375 39.140625 45 
Q 35.0625 48.390625 27.6875 48.390625 
Q 23 48.390625 18.546875 47.265625 
Q 14.109375 46.140625 10.015625 43.890625 
L 10.015625 52.203125 
Q 14.9375 54.109375 19.578125 55.046875 
Q 24.21875 56 28.609375 56 
Q 40.484375 56 46.34375 49.84375 
Q 52.203125 43.703125 52.203125 31.203125 
z
" id="DejaVuSans-97"/>
     <path d="M 45.40625 27.984375 
Q 45.40625 37.75 41.375 43.109375 
Q 37.359375 48.484375 30.078125 48.484375 
Q 22.859375 48.484375 18.828125 43.109375 
Q 14.796875 37.75 14.796875 27.984375 
Q 14.796875 18.265625 18.828125 12.890625 
Q 22.859375 7.515625 30.078125 7.515625 
Q 37.359375 7.515625 41.375 12.890625 
Q 45.40625 18.265625 45.40625 27.984375 
z
M 54.390625 6.78125 
Q 54.390625 -7.171875 48.1875 -13.984375 
Q 42 -20.796875 29.203125 -20.796875 
Q 24.46875 -20.796875 20.265625 -20.09375 
Q 16.0625 -19.390625 12.109375 -17.921875 
L 12.109375 -9.1875 
Q 16.0625 -11.328125 19.921875 -12.34375 
Q 23.78125 -13.375 27.78125 -13.375 
Q 36.625 -13.375 41.015625 -8.765625 
Q 45.40625 -4.15625 45.40625 5.171875 
L 45.40625 9.625 
Q 42.625 4.78125 38.28125 2.390625 
Q 33.9375 0 27.875 0 
Q 17.828125 0 11.671875 7.65625 
Q 5.515625 15.328125 5.515625 27.984375 
Q 5.515625 40.671875 11.671875 48.328125 
Q 17.828125 56 27.875 56 
Q 33.9375 56 38.28125 53.609375 
Q 42.625 51.21875 45.40625 46.390625 
L 45.40625 54.6875 
L 54.390625 54.6875 
z
" id="DejaVuSans-103"/>
     <path d="M 41.109375 46.296875 
Q 39.59375 47.171875 37.8125 47.578125 
Q 36.03125 48 33.890625 48 
Q 26.265625 48 22.1875 43.046875 
Q 18.109375 38.09375 18.109375 28.8125 
L 18.109375 0 
L 9.078125 0 
L 9.078125 54.6875 
L 18.109375 54.6875 
L 18.109375 46.1875 
Q 20.953125 51.171875 25.484375 53.578125 
Q 30.03125 56 36.53125 56 
Q 37.453125 56 38.578125 55.875 
Q 39.703125 55.765625 41.0625 55.515625 
z
" id="DejaVuSans-114"/>
     <path d="M 9.421875 54.6875 
L 18.40625 54.6875 
L 18.40625 0 
L 9.421875 0 
z
M 9.421875 75.984375 
L 18.40625 75.984375 
L 18.40625 64.59375 
L 9.421875 64.59375 
z
" id="DejaVuSans-105"/>
     <path d="M 54.890625 33.015625 
L 54.890625 0 
L 45.90625 0 
L 45.90625 32.71875 
Q 45.90625 40.484375 42.875 44.328125 
Q 39.84375 48.1875 33.796875 48.1875 
Q 26.515625 48.1875 22.3125 43.546875 
Q 18.109375 38.921875 18.109375 30.90625 
L 18.109375 0 
L 9.078125 0 
L 9.078125 54.6875 
L 18.109375 54.6875 
L 18.109375 46.1875 
Q 21.34375 51.125 25.703125 53.5625 
Q 30.078125 56 35.796875 56 
Q 45.21875 56 50.046875 50.171875 
Q 54.890625 44.34375 54.890625 33.015625 
z
" id="DejaVuSans-110"/>
     <path d="M 32.171875 -5.078125 
Q 28.375 -14.84375 24.75 -17.8125 
Q 21.140625 -20.796875 15.09375 -20.796875 
L 7.90625 -20.796875 
L 7.90625 -13.28125 
L 13.1875 -13.28125 
Q 16.890625 -13.28125 18.9375 -11.515625 
Q 21 -9.765625 23.484375 -3.21875 
L 25.09375 0.875 
L 2.984375 54.6875 
L 12.5 54.6875 
L 29.59375 11.921875 
L 46.6875 54.6875 
L 56.203125 54.6875 
z
" id="DejaVuSans-121"/>
    </defs>
    <g transform="translate(245.507812 80.4)scale(0.12 -0.12)">
     <use xlink:href="#DejaVuSans-66"/>
     <use x="68.603516" xlink:href="#DejaVuSans-101"/>
     <use x="130.126953" xlink:href="#DejaVuSans-115"/>
     <use x="182.226562" xlink:href="#DejaVuSans-116"/>
     <use x="221.435547" xlink:href="#DejaVuSans-32"/>
     <use x="253.222656" xlink:href="#DejaVuSans-109"/>
     <use x="350.634766" xlink:href="#DejaVuSans-111"/>
     <use x="411.816406" xlink:href="#DejaVuSans-100"/>
     <use x="475.292969" xlink:href="#DejaVuSans-101"/>
     <use x="536.816406" xlink:href="#DejaVuSans-108"/>
     <use x="564.599609" xlink:href="#DejaVuSans-32"/>
     <use x="596.386719" xlink:href="#DejaVuSans-99"/>
     <use x="651.367188" xlink:href="#DejaVuSans-97"/>
     <use x="712.646484" xlink:href="#DejaVuSans-116"/>
     <use x="751.855469" xlink:href="#DejaVuSans-101"/>
     <use x="813.378906" xlink:href="#DejaVuSans-103"/>
     <use x="876.855469" xlink:href="#DejaVuSans-111"/>
     <use x="938.037109" xlink:href="#DejaVuSans-114"/>
     <use x="979.150391" xlink:href="#DejaVuSans-105"/>
     <use x="1006.933594" xlink:href="#DejaVuSans-99"/>
     <use x="1061.914062" xlink:href="#DejaVuSans-97"/>
     <use x="1123.193359" xlink:href="#DejaVuSans-108"/>
     <use x="1150.976562" xlink:href="#DejaVuSans-32"/>
     <use x="1182.763672" xlink:href="#DejaVuSans-99"/>
     <use x="1237.744141" xlink:href="#DejaVuSans-114"/>
     <use x="1278.826172" xlink:href="#DejaVuSans-111"/>
     <use x="1340.007812" xlink:href="#DejaVuSans-115"/>
     <use x="1392.107422" xlink:href="#DejaVuSans-115"/>
     <use x="1444.207031" xlink:href="#DejaVuSans-101"/>
     <use x="1505.730469" xlink:href="#DejaVuSans-110"/>
     <use x="1569.109375" xlink:href="#DejaVuSans-116"/>
     <use x="1608.318359" xlink:href="#DejaVuSans-114"/>
     <use x="1649.400391" xlink:href="#DejaVuSans-111"/>
     <use x="1710.582031" xlink:href="#DejaVuSans-112"/>
     <use x="1774.058594" xlink:href="#DejaVuSans-121"/>
     <use x="1833.238281" xlink:href="#DejaVuSans-32"/>
     <use x="1865.025391" xlink:href="#DejaVuSans-108"/>
     <use x="1892.808594" xlink:href="#DejaVuSans-111"/>
     <use x="1953.990234" xlink:href="#DejaVuSans-115"/>
     <use x="2006.089844" xlink:href="#DejaVuSans-115"/>
    </g>
   </g>
   <g id="legend_1">
    <g id="patch_7">
     <path d="M 97 123.75625 
L 154.440625 123.75625 
Q 156.440625 123.75625 156.440625 121.75625 
L 156.440625 93.4 
Q 156.440625 91.4 154.440625 91.4 
L 97 91.4 
Q 95 91.4 95 93.4 
L 95 121.75625 
Q 95 123.75625 97 123.75625 
z
" style="fill:#ffffff;opacity:0.8;stroke:#cccccc;stroke-linejoin:miter;"/>
    </g>
    <g id="line2d_19">
     <path d="M 99 99.498437 
L 119 99.498437 
" style="fill:none;stroke:#1f77b4;stroke-linecap:square;stroke-width:1.5;"/>
    </g>
    <g id="line2d_20"/>
    <g id="text_20">
     <!-- Train -->
     <defs>
      <path d="M -0.296875 72.90625 
L 61.375 72.90625 
L 61.375 64.59375 
L 35.5 64.59375 
L 35.5 0 
L 25.59375 0 
L 25.59375 64.59375 
L -0.296875 64.59375 
z
" id="DejaVuSans-84"/>
     </defs>
     <g transform="translate(127 102.998437)scale(0.1 -0.1)">
      <use xlink:href="#DejaVuSans-84"/>
      <use x="60.865234" xlink:href="#DejaVuSans-114"/>
      <use x="101.978516" xlink:href="#DejaVuSans-97"/>
      <use x="163.257812" xlink:href="#DejaVuSans-105"/>
      <use x="191.041016" xlink:href="#DejaVuSans-110"/>
     </g>
    </g>
    <g id="line2d_21">
     <path d="M 99 114.176562 
L 119 114.176562 
" style="fill:none;stroke:#ff7f0e;stroke-linecap:square;stroke-width:1.5;"/>
    </g>
    <g id="line2d_22"/>
    <g id="text_21">
     <!-- Test -->
     <g transform="translate(127 117.676562)scale(0.1 -0.1)">
      <use xlink:href="#DejaVuSans-84"/>
      <use x="60.818359" xlink:href="#DejaVuSans-101"/>
      <use x="122.341797" xlink:href="#DejaVuSans-115"/>
      <use x="174.441406" xlink:href="#DejaVuSans-116"/>
     </g>
    </g>
   </g>
  </g>
 </g>
 <defs>
  <clipPath id="p8e9a0a105d">
   <rect height="543.6" width="558" x="90" y="86.4"/>
  </clipPath>
 </defs>
</svg>
