<?xml version="1.0" encoding="utf-8" standalone="no"?>
<!DOCTYPE svg PUBLIC "-//W3C//DTD SVG 1.1//EN"
  "http://www.w3.org/Graphics/SVG/1.1/DTD/svg11.dtd">
<!-- Created with matplotlib (https://matplotlib.org/) -->
<svg height="720pt" version="1.1" viewBox="0 0 720 720" width="720pt" xmlns="http://www.w3.org/2000/svg" xmlns:xlink="http://www.w3.org/1999/xlink">
 <defs>
  <style type="text/css">
*{stroke-linecap:butt;stroke-linejoin:round;}
  </style>
 </defs>
 <g id="figure_1">
  <g id="patch_1">
   <path d="M 0 720 
L 720 720 
L 720 0 
L 0 0 
z
" style="fill:#ffffff;"/>
  </g>
  <g id="axes_1">
   <g id="patch_2">
    <path d="M 90 630 
L 648 630 
L 648 86.4 
L 90 86.4 
z
" style="fill:#ffffff;"/>
   </g>
   <g id="matplotlib.axis_1">
    <g id="xtick_1">
     <g id="line2d_1">
      <defs>
       <path d="M 0 0 
L 0 3.5 
" id="m739d7ca981" style="stroke:#000000;stroke-width:0.8;"/>
      </defs>
      <g>
       <use style="stroke:#000000;stroke-width:0.8;" x="113.099026" xlink:href="#m739d7ca981" y="630"/>
      </g>
     </g>
     <g id="text_1">
      <!-- 0 -->
      <defs>
       <path d="M 31.78125 66.40625 
Q 24.171875 66.40625 20.328125 58.90625 
Q 16.5 51.421875 16.5 36.375 
Q 16.5 21.390625 20.328125 13.890625 
Q 24.171875 6.390625 31.78125 6.390625 
Q 39.453125 6.390625 43.28125 13.890625 
Q 47.125 21.390625 47.125 36.375 
Q 47.125 51.421875 43.28125 58.90625 
Q 39.453125 66.40625 31.78125 66.40625 
z
M 31.78125 74.21875 
Q 44.046875 74.21875 50.515625 64.515625 
Q 56.984375 54.828125 56.984375 36.375 
Q 56.984375 17.96875 50.515625 8.265625 
Q 44.046875 -1.421875 31.78125 -1.421875 
Q 19.53125 -1.421875 13.0625 8.265625 
Q 6.59375 17.96875 6.59375 36.375 
Q 6.59375 54.828125 13.0625 64.515625 
Q 19.53125 74.21875 31.78125 74.21875 
z
" id="DejaVuSans-48"/>
      </defs>
      <g transform="translate(109.917776 644.598438)scale(0.1 -0.1)">
       <use xlink:href="#DejaVuSans-48"/>
      </g>
     </g>
    </g>
    <g id="xtick_2">
     <g id="line2d_2">
      <g>
       <use style="stroke:#000000;stroke-width:0.8;" x="226.329545" xlink:href="#m739d7ca981" y="630"/>
      </g>
     </g>
     <g id="text_2">
      <!-- 50 -->
      <defs>
       <path d="M 10.796875 72.90625 
L 49.515625 72.90625 
L 49.515625 64.59375 
L 19.828125 64.59375 
L 19.828125 46.734375 
Q 21.96875 47.46875 24.109375 47.828125 
Q 26.265625 48.1875 28.421875 48.1875 
Q 40.625 48.1875 47.75 41.5 
Q 54.890625 34.8125 54.890625 23.390625 
Q 54.890625 11.625 47.5625 5.09375 
Q 40.234375 -1.421875 26.90625 -1.421875 
Q 22.3125 -1.421875 17.546875 -0.640625 
Q 12.796875 0.140625 7.71875 1.703125 
L 7.71875 11.625 
Q 12.109375 9.234375 16.796875 8.0625 
Q 21.484375 6.890625 26.703125 6.890625 
Q 35.15625 6.890625 40.078125 11.328125 
Q 45.015625 15.765625 45.015625 23.390625 
Q 45.015625 31 40.078125 35.4375 
Q 35.15625 39.890625 26.703125 39.890625 
Q 22.75 39.890625 18.8125 39.015625 
Q 14.890625 38.140625 10.796875 36.28125 
z
" id="DejaVuSans-53"/>
      </defs>
      <g transform="translate(219.967045 644.598438)scale(0.1 -0.1)">
       <use xlink:href="#DejaVuSans-53"/>
       <use x="63.623047" xlink:href="#DejaVuSans-48"/>
      </g>
     </g>
    </g>
    <g id="xtick_3">
     <g id="line2d_3">
      <g>
       <use style="stroke:#000000;stroke-width:0.8;" x="339.560065" xlink:href="#m739d7ca981" y="630"/>
      </g>
     </g>
     <g id="text_3">
      <!-- 100 -->
      <defs>
       <path d="M 12.40625 8.296875 
L 28.515625 8.296875 
L 28.515625 63.921875 
L 10.984375 60.40625 
L 10.984375 69.390625 
L 28.421875 72.90625 
L 38.28125 72.90625 
L 38.28125 8.296875 
L 54.390625 8.296875 
L 54.390625 0 
L 12.40625 0 
z
" id="DejaVuSans-49"/>
      </defs>
      <g transform="translate(330.016315 644.598438)scale(0.1 -0.1)">
       <use xlink:href="#DejaVuSans-49"/>
       <use x="63.623047" xlink:href="#DejaVuSans-48"/>
       <use x="127.246094" xlink:href="#DejaVuSans-48"/>
      </g>
     </g>
    </g>
    <g id="xtick_4">
     <g id="line2d_4">
      <g>
       <use style="stroke:#000000;stroke-width:0.8;" x="452.790584" xlink:href="#m739d7ca981" y="630"/>
      </g>
     </g>
     <g id="text_4">
      <!-- 150 -->
      <g transform="translate(443.246834 644.598438)scale(0.1 -0.1)">
       <use xlink:href="#DejaVuSans-49"/>
       <use x="63.623047" xlink:href="#DejaVuSans-53"/>
       <use x="127.246094" xlink:href="#DejaVuSans-48"/>
      </g>
     </g>
    </g>
    <g id="xtick_5">
     <g id="line2d_5">
      <g>
       <use style="stroke:#000000;stroke-width:0.8;" x="566.021104" xlink:href="#m739d7ca981" y="630"/>
      </g>
     </g>
     <g id="text_5">
      <!-- 200 -->
      <defs>
       <path d="M 19.1875 8.296875 
L 53.609375 8.296875 
L 53.609375 0 
L 7.328125 0 
L 7.328125 8.296875 
Q 12.9375 14.109375 22.625 23.890625 
Q 32.328125 33.6875 34.8125 36.53125 
Q 39.546875 41.84375 41.421875 45.53125 
Q 43.3125 49.21875 43.3125 52.78125 
Q 43.3125 58.59375 39.234375 62.25 
Q 35.15625 65.921875 28.609375 65.921875 
Q 23.96875 65.921875 18.8125 64.3125 
Q 13.671875 62.703125 7.8125 59.421875 
L 7.8125 69.390625 
Q 13.765625 71.78125 18.9375 73 
Q 24.125 74.21875 28.421875 74.21875 
Q 39.75 74.21875 46.484375 68.546875 
Q 53.21875 62.890625 53.21875 53.421875 
Q 53.21875 48.921875 51.53125 44.890625 
Q 49.859375 40.875 45.40625 35.40625 
Q 44.1875 33.984375 37.640625 27.21875 
Q 31.109375 20.453125 19.1875 8.296875 
z
" id="DejaVuSans-50"/>
      </defs>
      <g transform="translate(556.477354 644.598438)scale(0.1 -0.1)">
       <use xlink:href="#DejaVuSans-50"/>
       <use x="63.623047" xlink:href="#DejaVuSans-48"/>
       <use x="127.246094" xlink:href="#DejaVuSans-48"/>
      </g>
     </g>
    </g>
    <g id="text_6">
     <!-- Eigenmode -->
     <defs>
      <path d="M 9.8125 72.90625 
L 55.90625 72.90625 
L 55.90625 64.59375 
L 19.671875 64.59375 
L 19.671875 43.015625 
L 54.390625 43.015625 
L 54.390625 34.71875 
L 19.671875 34.71875 
L 19.671875 8.296875 
L 56.78125 8.296875 
L 56.78125 0 
L 9.8125 0 
z
" id="DejaVuSans-69"/>
      <path d="M 9.421875 54.6875 
L 18.40625 54.6875 
L 18.40625 0 
L 9.421875 0 
z
M 9.421875 75.984375 
L 18.40625 75.984375 
L 18.40625 64.59375 
L 9.421875 64.59375 
z
" id="DejaVuSans-105"/>
      <path d="M 45.40625 27.984375 
Q 45.40625 37.75 41.375 43.109375 
Q 37.359375 48.484375 30.078125 48.484375 
Q 22.859375 48.484375 18.828125 43.109375 
Q 14.796875 37.75 14.796875 27.984375 
Q 14.796875 18.265625 18.828125 12.890625 
Q 22.859375 7.515625 30.078125 7.515625 
Q 37.359375 7.515625 41.375 12.890625 
Q 45.40625 18.265625 45.40625 27.984375 
z
M 54.390625 6.78125 
Q 54.390625 -7.171875 48.1875 -13.984375 
Q 42 -20.796875 29.203125 -20.796875 
Q 24.46875 -20.796875 20.265625 -20.09375 
Q 16.0625 -19.390625 12.109375 -17.921875 
L 12.109375 -9.1875 
Q 16.0625 -11.328125 19.921875 -12.34375 
Q 23.78125 -13.375 27.78125 -13.375 
Q 36.625 -13.375 41.015625 -8.765625 
Q 45.40625 -4.15625 45.40625 5.171875 
L 45.40625 9.625 
Q 42.625 4.78125 38.28125 2.390625 
Q 33.9375 0 27.875 0 
Q 17.828125 0 11.671875 7.65625 
Q 5.515625 15.328125 5.515625 27.984375 
Q 5.515625 40.671875 11.671875 48.328125 
Q 17.828125 56 27.875 56 
Q 33.9375 56 38.28125 53.609375 
Q 42.625 51.21875 45.40625 46.390625 
L 45.40625 54.6875 
L 54.390625 54.6875 
z
" id="DejaVuSans-103"/>
      <path d="M 56.203125 29.59375 
L 56.203125 25.203125 
L 14.890625 25.203125 
Q 15.484375 15.921875 20.484375 11.0625 
Q 25.484375 6.203125 34.421875 6.203125 
Q 39.59375 6.203125 44.453125 7.46875 
Q 49.3125 8.734375 54.109375 11.28125 
L 54.109375 2.78125 
Q 49.265625 0.734375 44.1875 -0.34375 
Q 39.109375 -1.421875 33.890625 -1.421875 
Q 20.796875 -1.421875 13.15625 6.1875 
Q 5.515625 13.8125 5.515625 26.8125 
Q 5.515625 40.234375 12.765625 48.109375 
Q 20.015625 56 32.328125 56 
Q 43.359375 56 49.78125 48.890625 
Q 56.203125 41.796875 56.203125 29.59375 
z
M 47.21875 32.234375 
Q 47.125 39.59375 43.09375 43.984375 
Q 39.0625 48.390625 32.421875 48.390625 
Q 24.90625 48.390625 20.390625 44.140625 
Q 15.875 39.890625 15.1875 32.171875 
z
" id="DejaVuSans-101"/>
      <path d="M 54.890625 33.015625 
L 54.890625 0 
L 45.90625 0 
L 45.90625 32.71875 
Q 45.90625 40.484375 42.875 44.328125 
Q 39.84375 48.1875 33.796875 48.1875 
Q 26.515625 48.1875 22.3125 43.546875 
Q 18.109375 38.921875 18.109375 30.90625 
L 18.109375 0 
L 9.078125 0 
L 9.078125 54.6875 
L 18.109375 54.6875 
L 18.109375 46.1875 
Q 21.34375 51.125 25.703125 53.5625 
Q 30.078125 56 35.796875 56 
Q 45.21875 56 50.046875 50.171875 
Q 54.890625 44.34375 54.890625 33.015625 
z
" id="DejaVuSans-110"/>
      <path d="M 52 44.1875 
Q 55.375 50.25 60.0625 53.125 
Q 64.75 56 71.09375 56 
Q 79.640625 56 84.28125 50.015625 
Q 88.921875 44.046875 88.921875 33.015625 
L 88.921875 0 
L 79.890625 0 
L 79.890625 32.71875 
Q 79.890625 40.578125 77.09375 44.375 
Q 74.3125 48.1875 68.609375 48.1875 
Q 61.625 48.1875 57.5625 43.546875 
Q 53.515625 38.921875 53.515625 30.90625 
L 53.515625 0 
L 44.484375 0 
L 44.484375 32.71875 
Q 44.484375 40.625 41.703125 44.40625 
Q 38.921875 48.1875 33.109375 48.1875 
Q 26.21875 48.1875 22.15625 43.53125 
Q 18.109375 38.875 18.109375 30.90625 
L 18.109375 0 
L 9.078125 0 
L 9.078125 54.6875 
L 18.109375 54.6875 
L 18.109375 46.1875 
Q 21.1875 51.21875 25.484375 53.609375 
Q 29.78125 56 35.6875 56 
Q 41.65625 56 45.828125 52.96875 
Q 50 49.953125 52 44.1875 
z
" id="DejaVuSans-109"/>
      <path d="M 30.609375 48.390625 
Q 23.390625 48.390625 19.1875 42.75 
Q 14.984375 37.109375 14.984375 27.296875 
Q 14.984375 17.484375 19.15625 11.84375 
Q 23.34375 6.203125 30.609375 6.203125 
Q 37.796875 6.203125 41.984375 11.859375 
Q 46.1875 17.53125 46.1875 27.296875 
Q 46.1875 37.015625 41.984375 42.703125 
Q 37.796875 48.390625 30.609375 48.390625 
z
M 30.609375 56 
Q 42.328125 56 49.015625 48.375 
Q 55.71875 40.765625 55.71875 27.296875 
Q 55.71875 13.875 49.015625 6.21875 
Q 42.328125 -1.421875 30.609375 -1.421875 
Q 18.84375 -1.421875 12.171875 6.21875 
Q 5.515625 13.875 5.515625 27.296875 
Q 5.515625 40.765625 12.171875 48.375 
Q 18.84375 56 30.609375 56 
z
" id="DejaVuSans-111"/>
      <path d="M 45.40625 46.390625 
L 45.40625 75.984375 
L 54.390625 75.984375 
L 54.390625 0 
L 45.40625 0 
L 45.40625 8.203125 
Q 42.578125 3.328125 38.25 0.953125 
Q 33.9375 -1.421875 27.875 -1.421875 
Q 17.96875 -1.421875 11.734375 6.484375 
Q 5.515625 14.40625 5.515625 27.296875 
Q 5.515625 40.1875 11.734375 48.09375 
Q 17.96875 56 27.875 56 
Q 33.9375 56 38.25 53.625 
Q 42.578125 51.265625 45.40625 46.390625 
z
M 14.796875 27.296875 
Q 14.796875 17.390625 18.875 11.75 
Q 22.953125 6.109375 30.078125 6.109375 
Q 37.203125 6.109375 41.296875 11.75 
Q 45.40625 17.390625 45.40625 27.296875 
Q 45.40625 37.203125 41.296875 42.84375 
Q 37.203125 48.484375 30.078125 48.484375 
Q 22.953125 48.484375 18.875 42.84375 
Q 14.796875 37.203125 14.796875 27.296875 
z
" id="DejaVuSans-100"/>
     </defs>
     <g transform="translate(340.851562 658.276562)scale(0.1 -0.1)">
      <use xlink:href="#DejaVuSans-69"/>
      <use x="63.183594" xlink:href="#DejaVuSans-105"/>
      <use x="90.966797" xlink:href="#DejaVuSans-103"/>
      <use x="154.443359" xlink:href="#DejaVuSans-101"/>
      <use x="215.966797" xlink:href="#DejaVuSans-110"/>
      <use x="279.345703" xlink:href="#DejaVuSans-109"/>
      <use x="376.757812" xlink:href="#DejaVuSans-111"/>
      <use x="437.939453" xlink:href="#DejaVuSans-100"/>
      <use x="501.416016" xlink:href="#DejaVuSans-101"/>
     </g>
    </g>
   </g>
   <g id="matplotlib.axis_2">
    <g id="ytick_1">
     <g id="line2d_6">
      <defs>
       <path d="M 0 0 
L -3.5 0 
" id="mf0dec2bebf" style="stroke:#000000;stroke-width:0.8;"/>
      </defs>
      <g>
       <use style="stroke:#000000;stroke-width:0.8;" x="90" xlink:href="#mf0dec2bebf" y="605.29097"/>
      </g>
     </g>
     <g id="text_7">
      <!-- 0.0 -->
      <defs>
       <path d="M 10.6875 12.40625 
L 21 12.40625 
L 21 0 
L 10.6875 0 
z
" id="DejaVuSans-46"/>
      </defs>
      <g transform="translate(67.096875 609.090189)scale(0.1 -0.1)">
       <use xlink:href="#DejaVuSans-48"/>
       <use x="63.623047" xlink:href="#DejaVuSans-46"/>
       <use x="95.410156" xlink:href="#DejaVuSans-48"/>
      </g>
     </g>
    </g>
    <g id="ytick_2">
     <g id="line2d_7">
      <g>
       <use style="stroke:#000000;stroke-width:0.8;" x="90" xlink:href="#mf0dec2bebf" y="538.565548"/>
      </g>
     </g>
     <g id="text_8">
      <!-- 0.1 -->
      <g transform="translate(67.096875 542.364767)scale(0.1 -0.1)">
       <use xlink:href="#DejaVuSans-48"/>
       <use x="63.623047" xlink:href="#DejaVuSans-46"/>
       <use x="95.410156" xlink:href="#DejaVuSans-49"/>
      </g>
     </g>
    </g>
    <g id="ytick_3">
     <g id="line2d_8">
      <g>
       <use style="stroke:#000000;stroke-width:0.8;" x="90" xlink:href="#mf0dec2bebf" y="471.840126"/>
      </g>
     </g>
     <g id="text_9">
      <!-- 0.2 -->
      <g transform="translate(67.096875 475.639345)scale(0.1 -0.1)">
       <use xlink:href="#DejaVuSans-48"/>
       <use x="63.623047" xlink:href="#DejaVuSans-46"/>
       <use x="95.410156" xlink:href="#DejaVuSans-50"/>
      </g>
     </g>
    </g>
    <g id="ytick_4">
     <g id="line2d_9">
      <g>
       <use style="stroke:#000000;stroke-width:0.8;" x="90" xlink:href="#mf0dec2bebf" y="405.114705"/>
      </g>
     </g>
     <g id="text_10">
      <!-- 0.3 -->
      <defs>
       <path d="M 40.578125 39.3125 
Q 47.65625 37.796875 51.625 33 
Q 55.609375 28.21875 55.609375 21.1875 
Q 55.609375 10.40625 48.1875 4.484375 
Q 40.765625 -1.421875 27.09375 -1.421875 
Q 22.515625 -1.421875 17.65625 -0.515625 
Q 12.796875 0.390625 7.625 2.203125 
L 7.625 11.71875 
Q 11.71875 9.328125 16.59375 8.109375 
Q 21.484375 6.890625 26.8125 6.890625 
Q 36.078125 6.890625 40.9375 10.546875 
Q 45.796875 14.203125 45.796875 21.1875 
Q 45.796875 27.640625 41.28125 31.265625 
Q 36.765625 34.90625 28.71875 34.90625 
L 20.21875 34.90625 
L 20.21875 43.015625 
L 29.109375 43.015625 
Q 36.375 43.015625 40.234375 45.921875 
Q 44.09375 48.828125 44.09375 54.296875 
Q 44.09375 59.90625 40.109375 62.90625 
Q 36.140625 65.921875 28.71875 65.921875 
Q 24.65625 65.921875 20.015625 65.03125 
Q 15.375 64.15625 9.8125 62.3125 
L 9.8125 71.09375 
Q 15.4375 72.65625 20.34375 73.4375 
Q 25.25 74.21875 29.59375 74.21875 
Q 40.828125 74.21875 47.359375 69.109375 
Q 53.90625 64.015625 53.90625 55.328125 
Q 53.90625 49.265625 50.4375 45.09375 
Q 46.96875 40.921875 40.578125 39.3125 
z
" id="DejaVuSans-51"/>
      </defs>
      <g transform="translate(67.096875 408.913923)scale(0.1 -0.1)">
       <use xlink:href="#DejaVuSans-48"/>
       <use x="63.623047" xlink:href="#DejaVuSans-46"/>
       <use x="95.410156" xlink:href="#DejaVuSans-51"/>
      </g>
     </g>
    </g>
    <g id="ytick_5">
     <g id="line2d_10">
      <g>
       <use style="stroke:#000000;stroke-width:0.8;" x="90" xlink:href="#mf0dec2bebf" y="338.389283"/>
      </g>
     </g>
     <g id="text_11">
      <!-- 0.4 -->
      <defs>
       <path d="M 37.796875 64.3125 
L 12.890625 25.390625 
L 37.796875 25.390625 
z
M 35.203125 72.90625 
L 47.609375 72.90625 
L 47.609375 25.390625 
L 58.015625 25.390625 
L 58.015625 17.1875 
L 47.609375 17.1875 
L 47.609375 0 
L 37.796875 0 
L 37.796875 17.1875 
L 4.890625 17.1875 
L 4.890625 26.703125 
z
" id="DejaVuSans-52"/>
      </defs>
      <g transform="translate(67.096875 342.188502)scale(0.1 -0.1)">
       <use xlink:href="#DejaVuSans-48"/>
       <use x="63.623047" xlink:href="#DejaVuSans-46"/>
       <use x="95.410156" xlink:href="#DejaVuSans-52"/>
      </g>
     </g>
    </g>
    <g id="ytick_6">
     <g id="line2d_11">
      <g>
       <use style="stroke:#000000;stroke-width:0.8;" x="90" xlink:href="#mf0dec2bebf" y="271.663861"/>
      </g>
     </g>
     <g id="text_12">
      <!-- 0.5 -->
      <g transform="translate(67.096875 275.46308)scale(0.1 -0.1)">
       <use xlink:href="#DejaVuSans-48"/>
       <use x="63.623047" xlink:href="#DejaVuSans-46"/>
       <use x="95.410156" xlink:href="#DejaVuSans-53"/>
      </g>
     </g>
    </g>
    <g id="ytick_7">
     <g id="line2d_12">
      <g>
       <use style="stroke:#000000;stroke-width:0.8;" x="90" xlink:href="#mf0dec2bebf" y="204.938439"/>
      </g>
     </g>
     <g id="text_13">
      <!-- 0.6 -->
      <defs>
       <path d="M 33.015625 40.375 
Q 26.375 40.375 22.484375 35.828125 
Q 18.609375 31.296875 18.609375 23.390625 
Q 18.609375 15.53125 22.484375 10.953125 
Q 26.375 6.390625 33.015625 6.390625 
Q 39.65625 6.390625 43.53125 10.953125 
Q 47.40625 15.53125 47.40625 23.390625 
Q 47.40625 31.296875 43.53125 35.828125 
Q 39.65625 40.375 33.015625 40.375 
z
M 52.59375 71.296875 
L 52.59375 62.3125 
Q 48.875 64.0625 45.09375 64.984375 
Q 41.3125 65.921875 37.59375 65.921875 
Q 27.828125 65.921875 22.671875 59.328125 
Q 17.53125 52.734375 16.796875 39.40625 
Q 19.671875 43.65625 24.015625 45.921875 
Q 28.375 48.1875 33.59375 48.1875 
Q 44.578125 48.1875 50.953125 41.515625 
Q 57.328125 34.859375 57.328125 23.390625 
Q 57.328125 12.15625 50.6875 5.359375 
Q 44.046875 -1.421875 33.015625 -1.421875 
Q 20.359375 -1.421875 13.671875 8.265625 
Q 6.984375 17.96875 6.984375 36.375 
Q 6.984375 53.65625 15.1875 63.9375 
Q 23.390625 74.21875 37.203125 74.21875 
Q 40.921875 74.21875 44.703125 73.484375 
Q 48.484375 72.75 52.59375 71.296875 
z
" id="DejaVuSans-54"/>
      </defs>
      <g transform="translate(67.096875 208.737658)scale(0.1 -0.1)">
       <use xlink:href="#DejaVuSans-48"/>
       <use x="63.623047" xlink:href="#DejaVuSans-46"/>
       <use x="95.410156" xlink:href="#DejaVuSans-54"/>
      </g>
     </g>
    </g>
    <g id="ytick_8">
     <g id="line2d_13">
      <g>
       <use style="stroke:#000000;stroke-width:0.8;" x="90" xlink:href="#mf0dec2bebf" y="138.213017"/>
      </g>
     </g>
     <g id="text_14">
      <!-- 0.7 -->
      <defs>
       <path d="M 8.203125 72.90625 
L 55.078125 72.90625 
L 55.078125 68.703125 
L 28.609375 0 
L 18.3125 0 
L 43.21875 64.59375 
L 8.203125 64.59375 
z
" id="DejaVuSans-55"/>
      </defs>
      <g transform="translate(67.096875 142.012236)scale(0.1 -0.1)">
       <use xlink:href="#DejaVuSans-48"/>
       <use x="63.623047" xlink:href="#DejaVuSans-46"/>
       <use x="95.410156" xlink:href="#DejaVuSans-55"/>
      </g>
     </g>
    </g>
    <g id="text_15">
     <!-- PCA explained variance ratio -->
     <defs>
      <path d="M 19.671875 64.796875 
L 19.671875 37.40625 
L 32.078125 37.40625 
Q 38.96875 37.40625 42.71875 40.96875 
Q 46.484375 44.53125 46.484375 51.125 
Q 46.484375 57.671875 42.71875 61.234375 
Q 38.96875 64.796875 32.078125 64.796875 
z
M 9.8125 72.90625 
L 32.078125 72.90625 
Q 44.34375 72.90625 50.609375 67.359375 
Q 56.890625 61.8125 56.890625 51.125 
Q 56.890625 40.328125 50.609375 34.8125 
Q 44.34375 29.296875 32.078125 29.296875 
L 19.671875 29.296875 
L 19.671875 0 
L 9.8125 0 
z
" id="DejaVuSans-80"/>
      <path d="M 64.40625 67.28125 
L 64.40625 56.890625 
Q 59.421875 61.53125 53.78125 63.8125 
Q 48.140625 66.109375 41.796875 66.109375 
Q 29.296875 66.109375 22.65625 58.46875 
Q 16.015625 50.828125 16.015625 36.375 
Q 16.015625 21.96875 22.65625 14.328125 
Q 29.296875 6.6875 41.796875 6.6875 
Q 48.140625 6.6875 53.78125 8.984375 
Q 59.421875 11.28125 64.40625 15.921875 
L 64.40625 5.609375 
Q 59.234375 2.09375 53.4375 0.328125 
Q 47.65625 -1.421875 41.21875 -1.421875 
Q 24.65625 -1.421875 15.125 8.703125 
Q 5.609375 18.84375 5.609375 36.375 
Q 5.609375 53.953125 15.125 64.078125 
Q 24.65625 74.21875 41.21875 74.21875 
Q 47.75 74.21875 53.53125 72.484375 
Q 59.328125 70.75 64.40625 67.28125 
z
" id="DejaVuSans-67"/>
      <path d="M 34.1875 63.1875 
L 20.796875 26.90625 
L 47.609375 26.90625 
z
M 28.609375 72.90625 
L 39.796875 72.90625 
L 67.578125 0 
L 57.328125 0 
L 50.6875 18.703125 
L 17.828125 18.703125 
L 11.1875 0 
L 0.78125 0 
z
" id="DejaVuSans-65"/>
      <path id="DejaVuSans-32"/>
      <path d="M 54.890625 54.6875 
L 35.109375 28.078125 
L 55.90625 0 
L 45.3125 0 
L 29.390625 21.484375 
L 13.484375 0 
L 2.875 0 
L 24.125 28.609375 
L 4.6875 54.6875 
L 15.28125 54.6875 
L 29.78125 35.203125 
L 44.28125 54.6875 
z
" id="DejaVuSans-120"/>
      <path d="M 18.109375 8.203125 
L 18.109375 -20.796875 
L 9.078125 -20.796875 
L 9.078125 54.6875 
L 18.109375 54.6875 
L 18.109375 46.390625 
Q 20.953125 51.265625 25.265625 53.625 
Q 29.59375 56 35.59375 56 
Q 45.5625 56 51.78125 48.09375 
Q 58.015625 40.1875 58.015625 27.296875 
Q 58.015625 14.40625 51.78125 6.484375 
Q 45.5625 -1.421875 35.59375 -1.421875 
Q 29.59375 -1.421875 25.265625 0.953125 
Q 20.953125 3.328125 18.109375 8.203125 
z
M 48.6875 27.296875 
Q 48.6875 37.203125 44.609375 42.84375 
Q 40.53125 48.484375 33.40625 48.484375 
Q 26.265625 48.484375 22.1875 42.84375 
Q 18.109375 37.203125 18.109375 27.296875 
Q 18.109375 17.390625 22.1875 11.75 
Q 26.265625 6.109375 33.40625 6.109375 
Q 40.53125 6.109375 44.609375 11.75 
Q 48.6875 17.390625 48.6875 27.296875 
z
" id="DejaVuSans-112"/>
      <path d="M 9.421875 75.984375 
L 18.40625 75.984375 
L 18.40625 0 
L 9.421875 0 
z
" id="DejaVuSans-108"/>
      <path d="M 34.28125 27.484375 
Q 23.390625 27.484375 19.1875 25 
Q 14.984375 22.515625 14.984375 16.5 
Q 14.984375 11.71875 18.140625 8.90625 
Q 21.296875 6.109375 26.703125 6.109375 
Q 34.1875 6.109375 38.703125 11.40625 
Q 43.21875 16.703125 43.21875 25.484375 
L 43.21875 27.484375 
z
M 52.203125 31.203125 
L 52.203125 0 
L 43.21875 0 
L 43.21875 8.296875 
Q 40.140625 3.328125 35.546875 0.953125 
Q 30.953125 -1.421875 24.3125 -1.421875 
Q 15.921875 -1.421875 10.953125 3.296875 
Q 6 8.015625 6 15.921875 
Q 6 25.140625 12.171875 29.828125 
Q 18.359375 34.515625 30.609375 34.515625 
L 43.21875 34.515625 
L 43.21875 35.40625 
Q 43.21875 41.609375 39.140625 45 
Q 35.0625 48.390625 27.6875 48.390625 
Q 23 48.390625 18.546875 47.265625 
Q 14.109375 46.140625 10.015625 43.890625 
L 10.015625 52.203125 
Q 14.9375 54.109375 19.578125 55.046875 
Q 24.21875 56 28.609375 56 
Q 40.484375 56 46.34375 49.84375 
Q 52.203125 43.703125 52.203125 31.203125 
z
" id="DejaVuSans-97"/>
      <path d="M 2.984375 54.6875 
L 12.5 54.6875 
L 29.59375 8.796875 
L 46.6875 54.6875 
L 56.203125 54.6875 
L 35.6875 0 
L 23.484375 0 
z
" id="DejaVuSans-118"/>
      <path d="M 41.109375 46.296875 
Q 39.59375 47.171875 37.8125 47.578125 
Q 36.03125 48 33.890625 48 
Q 26.265625 48 22.1875 43.046875 
Q 18.109375 38.09375 18.109375 28.8125 
L 18.109375 0 
L 9.078125 0 
L 9.078125 54.6875 
L 18.109375 54.6875 
L 18.109375 46.1875 
Q 20.953125 51.171875 25.484375 53.578125 
Q 30.03125 56 36.53125 56 
Q 37.453125 56 38.578125 55.875 
Q 39.703125 55.765625 41.0625 55.515625 
z
" id="DejaVuSans-114"/>
      <path d="M 48.78125 52.59375 
L 48.78125 44.1875 
Q 44.96875 46.296875 41.140625 47.34375 
Q 37.3125 48.390625 33.40625 48.390625 
Q 24.65625 48.390625 19.8125 42.84375 
Q 14.984375 37.3125 14.984375 27.296875 
Q 14.984375 17.28125 19.8125 11.734375 
Q 24.65625 6.203125 33.40625 6.203125 
Q 37.3125 6.203125 41.140625 7.25 
Q 44.96875 8.296875 48.78125 10.40625 
L 48.78125 2.09375 
Q 45.015625 0.34375 40.984375 -0.53125 
Q 36.96875 -1.421875 32.421875 -1.421875 
Q 20.0625 -1.421875 12.78125 6.34375 
Q 5.515625 14.109375 5.515625 27.296875 
Q 5.515625 40.671875 12.859375 48.328125 
Q 20.21875 56 33.015625 56 
Q 37.15625 56 41.109375 55.140625 
Q 45.0625 54.296875 48.78125 52.59375 
z
" id="DejaVuSans-99"/>
      <path d="M 18.3125 70.21875 
L 18.3125 54.6875 
L 36.8125 54.6875 
L 36.8125 47.703125 
L 18.3125 47.703125 
L 18.3125 18.015625 
Q 18.3125 11.328125 20.140625 9.421875 
Q 21.96875 7.515625 27.59375 7.515625 
L 36.8125 7.515625 
L 36.8125 0 
L 27.59375 0 
Q 17.1875 0 13.234375 3.875 
Q 9.28125 7.765625 9.28125 18.015625 
L 9.28125 47.703125 
L 2.6875 47.703125 
L 2.6875 54.6875 
L 9.28125 54.6875 
L 9.28125 70.21875 
z
" id="DejaVuSans-116"/>
     </defs>
     <g transform="translate(61.017187 430.419531)rotate(-90)scale(0.1 -0.1)">
      <use xlink:href="#DejaVuSans-80"/>
      <use x="60.302734" xlink:href="#DejaVuSans-67"/>
      <use x="130.126953" xlink:href="#DejaVuSans-65"/>
      <use x="198.535156" xlink:href="#DejaVuSans-32"/>
      <use x="230.322266" xlink:href="#DejaVuSans-101"/>
      <use x="291.830078" xlink:href="#DejaVuSans-120"/>
      <use x="351.009766" xlink:href="#DejaVuSans-112"/>
      <use x="414.486328" xlink:href="#DejaVuSans-108"/>
      <use x="442.269531" xlink:href="#DejaVuSans-97"/>
      <use x="503.548828" xlink:href="#DejaVuSans-105"/>
      <use x="531.332031" xlink:href="#DejaVuSans-110"/>
      <use x="594.710938" xlink:href="#DejaVuSans-101"/>
      <use x="656.234375" xlink:href="#DejaVuSans-100"/>
      <use x="719.710938" xlink:href="#DejaVuSans-32"/>
      <use x="751.498047" xlink:href="#DejaVuSans-118"/>
      <use x="810.677734" xlink:href="#DejaVuSans-97"/>
      <use x="871.957031" xlink:href="#DejaVuSans-114"/>
      <use x="913.070312" xlink:href="#DejaVuSans-105"/>
      <use x="940.853516" xlink:href="#DejaVuSans-97"/>
      <use x="1002.132812" xlink:href="#DejaVuSans-110"/>
      <use x="1065.511719" xlink:href="#DejaVuSans-99"/>
      <use x="1120.492188" xlink:href="#DejaVuSans-101"/>
      <use x="1182.015625" xlink:href="#DejaVuSans-32"/>
      <use x="1213.802734" xlink:href="#DejaVuSans-114"/>
      <use x="1254.916016" xlink:href="#DejaVuSans-97"/>
      <use x="1316.195312" xlink:href="#DejaVuSans-116"/>
      <use x="1355.404297" xlink:href="#DejaVuSans-105"/>
      <use x="1383.1875" xlink:href="#DejaVuSans-111"/>
     </g>
    </g>
   </g>
   <g id="line2d_14">
    <defs>
     <path d="M -3 0 
L 3 0 
M 0 3 
L 0 -3 
" id="m2fe4a27146" style="stroke:#1f77b4;"/>
    </defs>
    <g clip-path="url(#p6773b39d7b)">
     <use style="fill:#1f77b4;stroke:#1f77b4;" x="115.363636" xlink:href="#m2fe4a27146" y="111.109091"/>
     <use style="fill:#1f77b4;stroke:#1f77b4;" x="117.628247" xlink:href="#m2fe4a27146" y="471.972541"/>
     <use style="fill:#1f77b4;stroke:#1f77b4;" x="119.892857" xlink:href="#m2fe4a27146" y="583.248208"/>
     <use style="fill:#1f77b4;stroke:#1f77b4;" x="122.157468" xlink:href="#m2fe4a27146" y="597.997909"/>
     <use style="fill:#1f77b4;stroke:#1f77b4;" x="124.422078" xlink:href="#m2fe4a27146" y="602.109326"/>
     <use style="fill:#1f77b4;stroke:#1f77b4;" x="126.686688" xlink:href="#m2fe4a27146" y="603.722992"/>
     <use style="fill:#1f77b4;stroke:#1f77b4;" x="128.951299" xlink:href="#m2fe4a27146" y="604.341268"/>
     <use style="fill:#1f77b4;stroke:#1f77b4;" x="131.215909" xlink:href="#m2fe4a27146" y="604.531972"/>
     <use style="fill:#1f77b4;stroke:#1f77b4;" x="133.480519" xlink:href="#m2fe4a27146" y="604.719798"/>
     <use style="fill:#1f77b4;stroke:#1f77b4;" x="135.74513" xlink:href="#m2fe4a27146" y="604.831616"/>
     <use style="fill:#1f77b4;stroke:#1f77b4;" x="138.00974" xlink:href="#m2fe4a27146" y="604.976438"/>
     <use style="fill:#1f77b4;stroke:#1f77b4;" x="140.274351" xlink:href="#m2fe4a27146" y="605.057161"/>
     <use style="fill:#1f77b4;stroke:#1f77b4;" x="142.538961" xlink:href="#m2fe4a27146" y="605.091461"/>
     <use style="fill:#1f77b4;stroke:#1f77b4;" x="144.803571" xlink:href="#m2fe4a27146" y="605.13331"/>
     <use style="fill:#1f77b4;stroke:#1f77b4;" x="147.068182" xlink:href="#m2fe4a27146" y="605.161004"/>
     <use style="fill:#1f77b4;stroke:#1f77b4;" x="149.332792" xlink:href="#m2fe4a27146" y="605.176055"/>
     <use style="fill:#1f77b4;stroke:#1f77b4;" x="151.597403" xlink:href="#m2fe4a27146" y="605.189614"/>
     <use style="fill:#1f77b4;stroke:#1f77b4;" x="153.862013" xlink:href="#m2fe4a27146" y="605.209264"/>
     <use style="fill:#1f77b4;stroke:#1f77b4;" x="156.126623" xlink:href="#m2fe4a27146" y="605.214115"/>
     <use style="fill:#1f77b4;stroke:#1f77b4;" x="158.391234" xlink:href="#m2fe4a27146" y="605.214898"/>
     <use style="fill:#1f77b4;stroke:#1f77b4;" x="160.655844" xlink:href="#m2fe4a27146" y="605.231083"/>
     <use style="fill:#1f77b4;stroke:#1f77b4;" x="162.920455" xlink:href="#m2fe4a27146" y="605.238191"/>
     <use style="fill:#1f77b4;stroke:#1f77b4;" x="165.185065" xlink:href="#m2fe4a27146" y="605.238618"/>
     <use style="fill:#1f77b4;stroke:#1f77b4;" x="167.449675" xlink:href="#m2fe4a27146" y="605.241298"/>
     <use style="fill:#1f77b4;stroke:#1f77b4;" x="169.714286" xlink:href="#m2fe4a27146" y="605.245822"/>
     <use style="fill:#1f77b4;stroke:#1f77b4;" x="171.978896" xlink:href="#m2fe4a27146" y="605.251017"/>
     <use style="fill:#1f77b4;stroke:#1f77b4;" x="174.243506" xlink:href="#m2fe4a27146" y="605.253316"/>
     <use style="fill:#1f77b4;stroke:#1f77b4;" x="176.508117" xlink:href="#m2fe4a27146" y="605.255265"/>
     <use style="fill:#1f77b4;stroke:#1f77b4;" x="178.772727" xlink:href="#m2fe4a27146" y="605.259548"/>
     <use style="fill:#1f77b4;stroke:#1f77b4;" x="181.037338" xlink:href="#m2fe4a27146" y="605.260364"/>
     <use style="fill:#1f77b4;stroke:#1f77b4;" x="183.301948" xlink:href="#m2fe4a27146" y="605.261657"/>
     <use style="fill:#1f77b4;stroke:#1f77b4;" x="185.566558" xlink:href="#m2fe4a27146" y="605.262135"/>
     <use style="fill:#1f77b4;stroke:#1f77b4;" x="187.831169" xlink:href="#m2fe4a27146" y="605.264102"/>
     <use style="fill:#1f77b4;stroke:#1f77b4;" x="190.095779" xlink:href="#m2fe4a27146" y="605.265542"/>
     <use style="fill:#1f77b4;stroke:#1f77b4;" x="192.36039" xlink:href="#m2fe4a27146" y="605.266534"/>
     <use style="fill:#1f77b4;stroke:#1f77b4;" x="194.625" xlink:href="#m2fe4a27146" y="605.267108"/>
     <use style="fill:#1f77b4;stroke:#1f77b4;" x="196.88961" xlink:href="#m2fe4a27146" y="605.268548"/>
     <use style="fill:#1f77b4;stroke:#1f77b4;" x="199.154221" xlink:href="#m2fe4a27146" y="605.269892"/>
     <use style="fill:#1f77b4;stroke:#1f77b4;" x="201.418831" xlink:href="#m2fe4a27146" y="605.27018"/>
     <use style="fill:#1f77b4;stroke:#1f77b4;" x="203.683442" xlink:href="#m2fe4a27146" y="605.270637"/>
     <use style="fill:#1f77b4;stroke:#1f77b4;" x="205.948052" xlink:href="#m2fe4a27146" y="605.270989"/>
     <use style="fill:#1f77b4;stroke:#1f77b4;" x="208.212662" xlink:href="#m2fe4a27146" y="605.271455"/>
     <use style="fill:#1f77b4;stroke:#1f77b4;" x="210.477273" xlink:href="#m2fe4a27146" y="605.27158"/>
     <use style="fill:#1f77b4;stroke:#1f77b4;" x="212.741883" xlink:href="#m2fe4a27146" y="605.272227"/>
     <use style="fill:#1f77b4;stroke:#1f77b4;" x="215.006494" xlink:href="#m2fe4a27146" y="605.273117"/>
     <use style="fill:#1f77b4;stroke:#1f77b4;" x="217.271104" xlink:href="#m2fe4a27146" y="605.273516"/>
     <use style="fill:#1f77b4;stroke:#1f77b4;" x="219.535714" xlink:href="#m2fe4a27146" y="605.274463"/>
     <use style="fill:#1f77b4;stroke:#1f77b4;" x="221.800325" xlink:href="#m2fe4a27146" y="605.274662"/>
     <use style="fill:#1f77b4;stroke:#1f77b4;" x="224.064935" xlink:href="#m2fe4a27146" y="605.27521"/>
     <use style="fill:#1f77b4;stroke:#1f77b4;" x="226.329545" xlink:href="#m2fe4a27146" y="605.275536"/>
     <use style="fill:#1f77b4;stroke:#1f77b4;" x="228.594156" xlink:href="#m2fe4a27146" y="605.276193"/>
     <use style="fill:#1f77b4;stroke:#1f77b4;" x="230.858766" xlink:href="#m2fe4a27146" y="605.276634"/>
     <use style="fill:#1f77b4;stroke:#1f77b4;" x="233.123377" xlink:href="#m2fe4a27146" y="605.276907"/>
     <use style="fill:#1f77b4;stroke:#1f77b4;" x="235.387987" xlink:href="#m2fe4a27146" y="605.277106"/>
     <use style="fill:#1f77b4;stroke:#1f77b4;" x="237.652597" xlink:href="#m2fe4a27146" y="605.277668"/>
     <use style="fill:#1f77b4;stroke:#1f77b4;" x="239.917208" xlink:href="#m2fe4a27146" y="605.278298"/>
     <use style="fill:#1f77b4;stroke:#1f77b4;" x="242.181818" xlink:href="#m2fe4a27146" y="605.278802"/>
     <use style="fill:#1f77b4;stroke:#1f77b4;" x="244.446429" xlink:href="#m2fe4a27146" y="605.278959"/>
     <use style="fill:#1f77b4;stroke:#1f77b4;" x="246.711039" xlink:href="#m2fe4a27146" y="605.27942"/>
     <use style="fill:#1f77b4;stroke:#1f77b4;" x="248.975649" xlink:href="#m2fe4a27146" y="605.279669"/>
     <use style="fill:#1f77b4;stroke:#1f77b4;" x="251.24026" xlink:href="#m2fe4a27146" y="605.279901"/>
     <use style="fill:#1f77b4;stroke:#1f77b4;" x="253.50487" xlink:href="#m2fe4a27146" y="605.280075"/>
     <use style="fill:#1f77b4;stroke:#1f77b4;" x="255.769481" xlink:href="#m2fe4a27146" y="605.280163"/>
     <use style="fill:#1f77b4;stroke:#1f77b4;" x="258.034091" xlink:href="#m2fe4a27146" y="605.280602"/>
     <use style="fill:#1f77b4;stroke:#1f77b4;" x="260.298701" xlink:href="#m2fe4a27146" y="605.280807"/>
     <use style="fill:#1f77b4;stroke:#1f77b4;" x="262.563312" xlink:href="#m2fe4a27146" y="605.281052"/>
     <use style="fill:#1f77b4;stroke:#1f77b4;" x="264.827922" xlink:href="#m2fe4a27146" y="605.281436"/>
     <use style="fill:#1f77b4;stroke:#1f77b4;" x="267.092532" xlink:href="#m2fe4a27146" y="605.281742"/>
     <use style="fill:#1f77b4;stroke:#1f77b4;" x="269.357143" xlink:href="#m2fe4a27146" y="605.281964"/>
     <use style="fill:#1f77b4;stroke:#1f77b4;" x="271.621753" xlink:href="#m2fe4a27146" y="605.282108"/>
     <use style="fill:#1f77b4;stroke:#1f77b4;" x="273.886364" xlink:href="#m2fe4a27146" y="605.282228"/>
     <use style="fill:#1f77b4;stroke:#1f77b4;" x="276.150974" xlink:href="#m2fe4a27146" y="605.282562"/>
     <use style="fill:#1f77b4;stroke:#1f77b4;" x="278.415584" xlink:href="#m2fe4a27146" y="605.282656"/>
     <use style="fill:#1f77b4;stroke:#1f77b4;" x="280.680195" xlink:href="#m2fe4a27146" y="605.28298"/>
     <use style="fill:#1f77b4;stroke:#1f77b4;" x="282.944805" xlink:href="#m2fe4a27146" y="605.283095"/>
     <use style="fill:#1f77b4;stroke:#1f77b4;" x="285.209416" xlink:href="#m2fe4a27146" y="605.283361"/>
     <use style="fill:#1f77b4;stroke:#1f77b4;" x="287.474026" xlink:href="#m2fe4a27146" y="605.283559"/>
     <use style="fill:#1f77b4;stroke:#1f77b4;" x="289.738636" xlink:href="#m2fe4a27146" y="605.283706"/>
     <use style="fill:#1f77b4;stroke:#1f77b4;" x="292.003247" xlink:href="#m2fe4a27146" y="605.283882"/>
     <use style="fill:#1f77b4;stroke:#1f77b4;" x="294.267857" xlink:href="#m2fe4a27146" y="605.284004"/>
     <use style="fill:#1f77b4;stroke:#1f77b4;" x="296.532468" xlink:href="#m2fe4a27146" y="605.284088"/>
     <use style="fill:#1f77b4;stroke:#1f77b4;" x="298.797078" xlink:href="#m2fe4a27146" y="605.284175"/>
     <use style="fill:#1f77b4;stroke:#1f77b4;" x="301.061688" xlink:href="#m2fe4a27146" y="605.284429"/>
     <use style="fill:#1f77b4;stroke:#1f77b4;" x="303.326299" xlink:href="#m2fe4a27146" y="605.284477"/>
     <use style="fill:#1f77b4;stroke:#1f77b4;" x="305.590909" xlink:href="#m2fe4a27146" y="605.284752"/>
     <use style="fill:#1f77b4;stroke:#1f77b4;" x="307.855519" xlink:href="#m2fe4a27146" y="605.284901"/>
     <use style="fill:#1f77b4;stroke:#1f77b4;" x="310.12013" xlink:href="#m2fe4a27146" y="605.284995"/>
     <use style="fill:#1f77b4;stroke:#1f77b4;" x="312.38474" xlink:href="#m2fe4a27146" y="605.285076"/>
     <use style="fill:#1f77b4;stroke:#1f77b4;" x="314.649351" xlink:href="#m2fe4a27146" y="605.285091"/>
     <use style="fill:#1f77b4;stroke:#1f77b4;" x="316.913961" xlink:href="#m2fe4a27146" y="605.285367"/>
     <use style="fill:#1f77b4;stroke:#1f77b4;" x="319.178571" xlink:href="#m2fe4a27146" y="605.28548"/>
     <use style="fill:#1f77b4;stroke:#1f77b4;" x="321.443182" xlink:href="#m2fe4a27146" y="605.285579"/>
     <use style="fill:#1f77b4;stroke:#1f77b4;" x="323.707792" xlink:href="#m2fe4a27146" y="605.285685"/>
     <use style="fill:#1f77b4;stroke:#1f77b4;" x="325.972403" xlink:href="#m2fe4a27146" y="605.285972"/>
     <use style="fill:#1f77b4;stroke:#1f77b4;" x="328.237013" xlink:href="#m2fe4a27146" y="605.286051"/>
     <use style="fill:#1f77b4;stroke:#1f77b4;" x="330.501623" xlink:href="#m2fe4a27146" y="605.286129"/>
     <use style="fill:#1f77b4;stroke:#1f77b4;" x="332.766234" xlink:href="#m2fe4a27146" y="605.28625"/>
     <use style="fill:#1f77b4;stroke:#1f77b4;" x="335.030844" xlink:href="#m2fe4a27146" y="605.286378"/>
     <use style="fill:#1f77b4;stroke:#1f77b4;" x="337.295455" xlink:href="#m2fe4a27146" y="605.28643"/>
     <use style="fill:#1f77b4;stroke:#1f77b4;" x="339.560065" xlink:href="#m2fe4a27146" y="605.286535"/>
     <use style="fill:#1f77b4;stroke:#1f77b4;" x="341.824675" xlink:href="#m2fe4a27146" y="605.286649"/>
     <use style="fill:#1f77b4;stroke:#1f77b4;" x="344.089286" xlink:href="#m2fe4a27146" y="605.28671"/>
     <use style="fill:#1f77b4;stroke:#1f77b4;" x="346.353896" xlink:href="#m2fe4a27146" y="605.286865"/>
     <use style="fill:#1f77b4;stroke:#1f77b4;" x="348.618506" xlink:href="#m2fe4a27146" y="605.286976"/>
     <use style="fill:#1f77b4;stroke:#1f77b4;" x="350.883117" xlink:href="#m2fe4a27146" y="605.287084"/>
     <use style="fill:#1f77b4;stroke:#1f77b4;" x="353.147727" xlink:href="#m2fe4a27146" y="605.287163"/>
     <use style="fill:#1f77b4;stroke:#1f77b4;" x="355.412338" xlink:href="#m2fe4a27146" y="605.287259"/>
     <use style="fill:#1f77b4;stroke:#1f77b4;" x="357.676948" xlink:href="#m2fe4a27146" y="605.287279"/>
     <use style="fill:#1f77b4;stroke:#1f77b4;" x="359.941558" xlink:href="#m2fe4a27146" y="605.287377"/>
     <use style="fill:#1f77b4;stroke:#1f77b4;" x="362.206169" xlink:href="#m2fe4a27146" y="605.28745"/>
     <use style="fill:#1f77b4;stroke:#1f77b4;" x="364.470779" xlink:href="#m2fe4a27146" y="605.287597"/>
     <use style="fill:#1f77b4;stroke:#1f77b4;" x="366.73539" xlink:href="#m2fe4a27146" y="605.287622"/>
     <use style="fill:#1f77b4;stroke:#1f77b4;" x="369" xlink:href="#m2fe4a27146" y="605.287665"/>
     <use style="fill:#1f77b4;stroke:#1f77b4;" x="371.26461" xlink:href="#m2fe4a27146" y="605.287812"/>
     <use style="fill:#1f77b4;stroke:#1f77b4;" x="373.529221" xlink:href="#m2fe4a27146" y="605.28788"/>
     <use style="fill:#1f77b4;stroke:#1f77b4;" x="375.793831" xlink:href="#m2fe4a27146" y="605.287942"/>
     <use style="fill:#1f77b4;stroke:#1f77b4;" x="378.058442" xlink:href="#m2fe4a27146" y="605.287983"/>
     <use style="fill:#1f77b4;stroke:#1f77b4;" x="380.323052" xlink:href="#m2fe4a27146" y="605.288112"/>
     <use style="fill:#1f77b4;stroke:#1f77b4;" x="382.587662" xlink:href="#m2fe4a27146" y="605.288154"/>
     <use style="fill:#1f77b4;stroke:#1f77b4;" x="384.852273" xlink:href="#m2fe4a27146" y="605.288226"/>
     <use style="fill:#1f77b4;stroke:#1f77b4;" x="387.116883" xlink:href="#m2fe4a27146" y="605.288258"/>
     <use style="fill:#1f77b4;stroke:#1f77b4;" x="389.381494" xlink:href="#m2fe4a27146" y="605.288343"/>
     <use style="fill:#1f77b4;stroke:#1f77b4;" x="391.646104" xlink:href="#m2fe4a27146" y="605.288375"/>
     <use style="fill:#1f77b4;stroke:#1f77b4;" x="393.910714" xlink:href="#m2fe4a27146" y="605.288419"/>
     <use style="fill:#1f77b4;stroke:#1f77b4;" x="396.175325" xlink:href="#m2fe4a27146" y="605.288601"/>
     <use style="fill:#1f77b4;stroke:#1f77b4;" x="398.439935" xlink:href="#m2fe4a27146" y="605.288624"/>
     <use style="fill:#1f77b4;stroke:#1f77b4;" x="400.704545" xlink:href="#m2fe4a27146" y="605.288669"/>
     <use style="fill:#1f77b4;stroke:#1f77b4;" x="402.969156" xlink:href="#m2fe4a27146" y="605.288721"/>
     <use style="fill:#1f77b4;stroke:#1f77b4;" x="405.233766" xlink:href="#m2fe4a27146" y="605.288737"/>
     <use style="fill:#1f77b4;stroke:#1f77b4;" x="407.498377" xlink:href="#m2fe4a27146" y="605.288768"/>
     <use style="fill:#1f77b4;stroke:#1f77b4;" x="409.762987" xlink:href="#m2fe4a27146" y="605.288814"/>
     <use style="fill:#1f77b4;stroke:#1f77b4;" x="412.027597" xlink:href="#m2fe4a27146" y="605.288891"/>
     <use style="fill:#1f77b4;stroke:#1f77b4;" x="414.292208" xlink:href="#m2fe4a27146" y="605.288921"/>
     <use style="fill:#1f77b4;stroke:#1f77b4;" x="416.556818" xlink:href="#m2fe4a27146" y="605.289018"/>
     <use style="fill:#1f77b4;stroke:#1f77b4;" x="418.821429" xlink:href="#m2fe4a27146" y="605.289038"/>
     <use style="fill:#1f77b4;stroke:#1f77b4;" x="421.086039" xlink:href="#m2fe4a27146" y="605.289082"/>
     <use style="fill:#1f77b4;stroke:#1f77b4;" x="423.350649" xlink:href="#m2fe4a27146" y="605.289126"/>
     <use style="fill:#1f77b4;stroke:#1f77b4;" x="425.61526" xlink:href="#m2fe4a27146" y="605.289187"/>
     <use style="fill:#1f77b4;stroke:#1f77b4;" x="427.87987" xlink:href="#m2fe4a27146" y="605.289229"/>
     <use style="fill:#1f77b4;stroke:#1f77b4;" x="430.144481" xlink:href="#m2fe4a27146" y="605.289238"/>
     <use style="fill:#1f77b4;stroke:#1f77b4;" x="432.409091" xlink:href="#m2fe4a27146" y="605.289299"/>
     <use style="fill:#1f77b4;stroke:#1f77b4;" x="434.673701" xlink:href="#m2fe4a27146" y="605.28935"/>
     <use style="fill:#1f77b4;stroke:#1f77b4;" x="436.938312" xlink:href="#m2fe4a27146" y="605.28936"/>
     <use style="fill:#1f77b4;stroke:#1f77b4;" x="439.202922" xlink:href="#m2fe4a27146" y="605.289421"/>
     <use style="fill:#1f77b4;stroke:#1f77b4;" x="441.467532" xlink:href="#m2fe4a27146" y="605.289451"/>
     <use style="fill:#1f77b4;stroke:#1f77b4;" x="443.732143" xlink:href="#m2fe4a27146" y="605.289469"/>
     <use style="fill:#1f77b4;stroke:#1f77b4;" x="445.996753" xlink:href="#m2fe4a27146" y="605.289534"/>
     <use style="fill:#1f77b4;stroke:#1f77b4;" x="448.261364" xlink:href="#m2fe4a27146" y="605.289565"/>
     <use style="fill:#1f77b4;stroke:#1f77b4;" x="450.525974" xlink:href="#m2fe4a27146" y="605.289584"/>
     <use style="fill:#1f77b4;stroke:#1f77b4;" x="452.790584" xlink:href="#m2fe4a27146" y="605.289614"/>
     <use style="fill:#1f77b4;stroke:#1f77b4;" x="455.055195" xlink:href="#m2fe4a27146" y="605.28964"/>
     <use style="fill:#1f77b4;stroke:#1f77b4;" x="457.319805" xlink:href="#m2fe4a27146" y="605.289688"/>
     <use style="fill:#1f77b4;stroke:#1f77b4;" x="459.584416" xlink:href="#m2fe4a27146" y="605.289709"/>
     <use style="fill:#1f77b4;stroke:#1f77b4;" x="461.849026" xlink:href="#m2fe4a27146" y="605.289735"/>
     <use style="fill:#1f77b4;stroke:#1f77b4;" x="464.113636" xlink:href="#m2fe4a27146" y="605.289777"/>
     <use style="fill:#1f77b4;stroke:#1f77b4;" x="466.378247" xlink:href="#m2fe4a27146" y="605.289814"/>
     <use style="fill:#1f77b4;stroke:#1f77b4;" x="468.642857" xlink:href="#m2fe4a27146" y="605.289851"/>
     <use style="fill:#1f77b4;stroke:#1f77b4;" x="470.907468" xlink:href="#m2fe4a27146" y="605.289863"/>
     <use style="fill:#1f77b4;stroke:#1f77b4;" x="473.172078" xlink:href="#m2fe4a27146" y="605.289889"/>
     <use style="fill:#1f77b4;stroke:#1f77b4;" x="475.436688" xlink:href="#m2fe4a27146" y="605.289958"/>
     <use style="fill:#1f77b4;stroke:#1f77b4;" x="477.701299" xlink:href="#m2fe4a27146" y="605.289967"/>
     <use style="fill:#1f77b4;stroke:#1f77b4;" x="479.965909" xlink:href="#m2fe4a27146" y="605.290006"/>
     <use style="fill:#1f77b4;stroke:#1f77b4;" x="482.230519" xlink:href="#m2fe4a27146" y="605.290015"/>
     <use style="fill:#1f77b4;stroke:#1f77b4;" x="484.49513" xlink:href="#m2fe4a27146" y="605.29004"/>
     <use style="fill:#1f77b4;stroke:#1f77b4;" x="486.75974" xlink:href="#m2fe4a27146" y="605.290059"/>
     <use style="fill:#1f77b4;stroke:#1f77b4;" x="489.024351" xlink:href="#m2fe4a27146" y="605.290097"/>
     <use style="fill:#1f77b4;stroke:#1f77b4;" x="491.288961" xlink:href="#m2fe4a27146" y="605.290135"/>
     <use style="fill:#1f77b4;stroke:#1f77b4;" x="493.553571" xlink:href="#m2fe4a27146" y="605.290144"/>
     <use style="fill:#1f77b4;stroke:#1f77b4;" x="495.818182" xlink:href="#m2fe4a27146" y="605.290168"/>
     <use style="fill:#1f77b4;stroke:#1f77b4;" x="498.082792" xlink:href="#m2fe4a27146" y="605.29019"/>
     <use style="fill:#1f77b4;stroke:#1f77b4;" x="500.347403" xlink:href="#m2fe4a27146" y="605.290207"/>
     <use style="fill:#1f77b4;stroke:#1f77b4;" x="502.612013" xlink:href="#m2fe4a27146" y="605.290222"/>
     <use style="fill:#1f77b4;stroke:#1f77b4;" x="504.876623" xlink:href="#m2fe4a27146" y="605.290236"/>
     <use style="fill:#1f77b4;stroke:#1f77b4;" x="507.141234" xlink:href="#m2fe4a27146" y="605.290255"/>
     <use style="fill:#1f77b4;stroke:#1f77b4;" x="509.405844" xlink:href="#m2fe4a27146" y="605.290272"/>
     <use style="fill:#1f77b4;stroke:#1f77b4;" x="511.670455" xlink:href="#m2fe4a27146" y="605.2903"/>
     <use style="fill:#1f77b4;stroke:#1f77b4;" x="513.935065" xlink:href="#m2fe4a27146" y="605.29033"/>
     <use style="fill:#1f77b4;stroke:#1f77b4;" x="516.199675" xlink:href="#m2fe4a27146" y="605.290336"/>
     <use style="fill:#1f77b4;stroke:#1f77b4;" x="518.464286" xlink:href="#m2fe4a27146" y="605.290355"/>
     <use style="fill:#1f77b4;stroke:#1f77b4;" x="520.728896" xlink:href="#m2fe4a27146" y="605.290368"/>
     <use style="fill:#1f77b4;stroke:#1f77b4;" x="522.993506" xlink:href="#m2fe4a27146" y="605.290387"/>
     <use style="fill:#1f77b4;stroke:#1f77b4;" x="525.258117" xlink:href="#m2fe4a27146" y="605.290404"/>
     <use style="fill:#1f77b4;stroke:#1f77b4;" x="527.522727" xlink:href="#m2fe4a27146" y="605.290425"/>
     <use style="fill:#1f77b4;stroke:#1f77b4;" x="529.787338" xlink:href="#m2fe4a27146" y="605.290433"/>
     <use style="fill:#1f77b4;stroke:#1f77b4;" x="532.051948" xlink:href="#m2fe4a27146" y="605.290456"/>
     <use style="fill:#1f77b4;stroke:#1f77b4;" x="534.316558" xlink:href="#m2fe4a27146" y="605.290459"/>
     <use style="fill:#1f77b4;stroke:#1f77b4;" x="536.581169" xlink:href="#m2fe4a27146" y="605.290482"/>
     <use style="fill:#1f77b4;stroke:#1f77b4;" x="538.845779" xlink:href="#m2fe4a27146" y="605.290495"/>
     <use style="fill:#1f77b4;stroke:#1f77b4;" x="541.11039" xlink:href="#m2fe4a27146" y="605.290518"/>
     <use style="fill:#1f77b4;stroke:#1f77b4;" x="543.375" xlink:href="#m2fe4a27146" y="605.290535"/>
     <use style="fill:#1f77b4;stroke:#1f77b4;" x="545.63961" xlink:href="#m2fe4a27146" y="605.290544"/>
     <use style="fill:#1f77b4;stroke:#1f77b4;" x="547.904221" xlink:href="#m2fe4a27146" y="605.290562"/>
     <use style="fill:#1f77b4;stroke:#1f77b4;" x="550.168831" xlink:href="#m2fe4a27146" y="605.290576"/>
     <use style="fill:#1f77b4;stroke:#1f77b4;" x="552.433442" xlink:href="#m2fe4a27146" y="605.290588"/>
     <use style="fill:#1f77b4;stroke:#1f77b4;" x="554.698052" xlink:href="#m2fe4a27146" y="605.290605"/>
     <use style="fill:#1f77b4;stroke:#1f77b4;" x="556.962662" xlink:href="#m2fe4a27146" y="605.290619"/>
     <use style="fill:#1f77b4;stroke:#1f77b4;" x="559.227273" xlink:href="#m2fe4a27146" y="605.290625"/>
     <use style="fill:#1f77b4;stroke:#1f77b4;" x="561.491883" xlink:href="#m2fe4a27146" y="605.290653"/>
     <use style="fill:#1f77b4;stroke:#1f77b4;" x="563.756494" xlink:href="#m2fe4a27146" y="605.290677"/>
     <use style="fill:#1f77b4;stroke:#1f77b4;" x="566.021104" xlink:href="#m2fe4a27146" y="605.290689"/>
     <use style="fill:#1f77b4;stroke:#1f77b4;" x="568.285714" xlink:href="#m2fe4a27146" y="605.290696"/>
     <use style="fill:#1f77b4;stroke:#1f77b4;" x="570.550325" xlink:href="#m2fe4a27146" y="605.290702"/>
     <use style="fill:#1f77b4;stroke:#1f77b4;" x="572.814935" xlink:href="#m2fe4a27146" y="605.29071"/>
     <use style="fill:#1f77b4;stroke:#1f77b4;" x="575.079545" xlink:href="#m2fe4a27146" y="605.290724"/>
     <use style="fill:#1f77b4;stroke:#1f77b4;" x="577.344156" xlink:href="#m2fe4a27146" y="605.29074"/>
     <use style="fill:#1f77b4;stroke:#1f77b4;" x="579.608766" xlink:href="#m2fe4a27146" y="605.290752"/>
     <use style="fill:#1f77b4;stroke:#1f77b4;" x="581.873377" xlink:href="#m2fe4a27146" y="605.290754"/>
     <use style="fill:#1f77b4;stroke:#1f77b4;" x="584.137987" xlink:href="#m2fe4a27146" y="605.290764"/>
     <use style="fill:#1f77b4;stroke:#1f77b4;" x="586.402597" xlink:href="#m2fe4a27146" y="605.290771"/>
     <use style="fill:#1f77b4;stroke:#1f77b4;" x="588.667208" xlink:href="#m2fe4a27146" y="605.290781"/>
     <use style="fill:#1f77b4;stroke:#1f77b4;" x="590.931818" xlink:href="#m2fe4a27146" y="605.290799"/>
     <use style="fill:#1f77b4;stroke:#1f77b4;" x="593.196429" xlink:href="#m2fe4a27146" y="605.2908"/>
     <use style="fill:#1f77b4;stroke:#1f77b4;" x="595.461039" xlink:href="#m2fe4a27146" y="605.290806"/>
     <use style="fill:#1f77b4;stroke:#1f77b4;" x="597.725649" xlink:href="#m2fe4a27146" y="605.290814"/>
     <use style="fill:#1f77b4;stroke:#1f77b4;" x="599.99026" xlink:href="#m2fe4a27146" y="605.290818"/>
     <use style="fill:#1f77b4;stroke:#1f77b4;" x="602.25487" xlink:href="#m2fe4a27146" y="605.290834"/>
     <use style="fill:#1f77b4;stroke:#1f77b4;" x="604.519481" xlink:href="#m2fe4a27146" y="605.29084"/>
     <use style="fill:#1f77b4;stroke:#1f77b4;" x="606.784091" xlink:href="#m2fe4a27146" y="605.29085"/>
     <use style="fill:#1f77b4;stroke:#1f77b4;" x="609.048701" xlink:href="#m2fe4a27146" y="605.29086"/>
     <use style="fill:#1f77b4;stroke:#1f77b4;" x="611.313312" xlink:href="#m2fe4a27146" y="605.290861"/>
     <use style="fill:#1f77b4;stroke:#1f77b4;" x="613.577922" xlink:href="#m2fe4a27146" y="605.290872"/>
     <use style="fill:#1f77b4;stroke:#1f77b4;" x="615.842532" xlink:href="#m2fe4a27146" y="605.290874"/>
     <use style="fill:#1f77b4;stroke:#1f77b4;" x="618.107143" xlink:href="#m2fe4a27146" y="605.290888"/>
     <use style="fill:#1f77b4;stroke:#1f77b4;" x="620.371753" xlink:href="#m2fe4a27146" y="605.2909"/>
     <use style="fill:#1f77b4;stroke:#1f77b4;" x="622.636364" xlink:href="#m2fe4a27146" y="605.290909"/>
    </g>
   </g>
   <g id="patch_3">
    <path d="M 90 630 
L 90 86.4 
" style="fill:none;stroke:#000000;stroke-linecap:square;stroke-linejoin:miter;stroke-width:0.8;"/>
   </g>
   <g id="patch_4">
    <path d="M 648 630 
L 648 86.4 
" style="fill:none;stroke:#000000;stroke-linecap:square;stroke-linejoin:miter;stroke-width:0.8;"/>
   </g>
   <g id="patch_5">
    <path d="M 90 630 
L 648 630 
" style="fill:none;stroke:#000000;stroke-linecap:square;stroke-linejoin:miter;stroke-width:0.8;"/>
   </g>
   <g id="patch_6">
    <path d="M 90 86.4 
L 648 86.4 
" style="fill:none;stroke:#000000;stroke-linecap:square;stroke-linejoin:miter;stroke-width:0.8;"/>
   </g>
  </g>
 </g>
 <defs>
  <clipPath id="p6773b39d7b">
   <rect height="543.6" width="558" x="90" y="86.4"/>
  </clipPath>
 </defs>
</svg>
